<?xml version="1.0" encoding="UTF-8" standalone="no"?>
<!-- Created with Inkscape (http://www.inkscape.org/) -->

<svg
   width="30mm"
   height="30mm"
   viewBox="0 0 30 29.999998"
   version="1.1"
   id="svg1"
   sodipodi:docname="cookbook.svg"
   inkscape:version="1.3.2 (091e20ef0f, 2023-11-25, custom)"
   xmlns:inkscape="http://www.inkscape.org/namespaces/inkscape"
   xmlns:sodipodi="http://sodipodi.sourceforge.net/DTD/sodipodi-0.dtd"
   xmlns="http://www.w3.org/2000/svg"
   xmlns:svg="http://www.w3.org/2000/svg">
  <sodipodi:namedview
     id="namedview1"
     pagecolor="#d3d3d3"
     bordercolor="#000000"
     borderopacity="0.25"
     inkscape:showpageshadow="2"
     inkscape:pageopacity="0.0"
     inkscape:pagecheckerboard="0"
     inkscape:deskcolor="#d1d1d1"
     inkscape:document-units="mm"
     inkscape:zoom="3.2421098"
     inkscape:cx="-30.227231"
     inkscape:cy="58.295374"
     inkscape:window-width="1920"
     inkscape:window-height="1040"
     inkscape:window-x="0"
     inkscape:window-y="18"
     inkscape:window-maximized="1"
     inkscape:current-layer="svg1"
     showguides="true">
    <sodipodi:guide
       position="7.1352168,40.305319"
       orientation="1,0"
       id="guide1"
       inkscape:locked="false" />
    <sodipodi:guide
       position="9.9160371,40.889166"
       orientation="0,-1"
       id="guide3"
       inkscape:locked="false" />
    <sodipodi:guide
       position="239.06256,-88.982004"
       orientation="0,-1"
       id="guide4"
       inkscape:locked="false" />
    <sodipodi:guide
       position="15.104988,18.629163"
       orientation="1,0"
       id="guide5"
       inkscape:locked="false" />
  </sodipodi:namedview>
  <defs
     id="defs1">
    <inkscape:path-effect
       effect="spiro"
       id="path-effect148079-4-3-7-9-8"
       is_visible="true"
       lpeversion="1" />
  </defs>
  <path
     d="m 136.92003,-242.75197 c -2.17545,0.0448 -3.91888,1.83602 -3.88802,4.01149 0,18.86932 -8.06921,25.53444 -16.35439,32.94014 -7.46746,6.66527 -15.24351,14.2407 -15.24351,30.25561 -0.0149,1.4346 0.7252,2.76186 1.95943,3.47154 1.23426,0.72551 2.7463,0.72551 3.98059,0 1.23426,-0.70909 1.97488,-2.03665 1.95946,-3.47154 0,-13.7315 5.13774,-17.69656 12.6052,-24.37721 8.28519,-7.39032 18.99268,-17.49607 18.99268,-38.81854 0.0149,-1.06437 -0.40112,-2.0983 -1.15708,-2.85426 -0.75596,-0.75536 -1.78973,-1.17186 -2.8543,-1.15693 z m 23.76014,15.86071 c -2.17544,0 -3.94974,1.77435 -3.94974,3.94968 0,11.54065 -4.90632,15.93788 -10.5995,21.02928 -6.10974,5.47728 -13.03721,11.67962 -13.03721,26.36757 0,2.17548 1.7743,3.94984 3.94973,3.94984 2.17544,0 3.94974,-1.75884 3.94974,-3.94984 0,-11.1549 4.82918,-15.47496 10.41435,-20.48917 6.20231,-5.55431 13.22236,-11.83384 13.22236,-26.90768 0,-2.17533 -1.7743,-3.94968 -3.94973,-3.94968 z m 19.74869,15.7989 c -2.19087,0 -3.94975,1.77435 -3.94975,3.94983 0,7.17432 -2.94688,9.81257 -6.68061,13.12975 -4.07316,3.62575 -9.14919,8.14629 -9.14919,18.46805 0,2.17548 1.7743,3.94984 3.94973,3.94984 2.17543,0 3.94973,-1.77436 3.94973,-3.94984 0,-6.78857 2.73088,-9.21081 6.51091,-12.57427 4.15029,-3.6874 9.31891,-8.30064 9.31891,-19.02353 0,-2.17548 -1.75886,-3.94983 -3.94973,-3.94983 z m 74.42789,39.25056 c -9.16469,-0.1045 -29.90077,1.34204 -54.97244,13.68522 l 0.15376,-0.5404 c 0.32395,-1.18828 0.0747,-2.46852 -0.6628,-3.44064 -0.75537,-0.98675 -1.91305,-1.5582 -3.14745,-1.5582 H 84.277522 c -1.234259,0 -2.40688,0.57026 -3.14745,1.5582 -0.740585,0.97183 -1.002872,2.25266 -0.678932,3.44064 l 7.88404,28.88252 c 2.80802,10.29086 12.20409,17.46518 22.86529,17.46518 h 58.10432 c 10.05948,0 18.91557,-6.43373 22.24813,-15.7989 h 4.92181 c 6.9583,0 13.88571,-2.40686 19.10055,-7.32867 4.33558,-4.08852 13.099,-9.68911 30.40997,-11.67948 9.90512,-1.142 17.38815,-9.64298 17.38815,-19.59438 v -0.8942 c 0,-1.97484 -1.46594,-3.64112 -3.40974,-3.90341 0,0 -1.82063,-0.24631 -5.10691,-0.29259 z m -3.39436,8.10001 c 1.15693,0.0448 2.0983,0.0896 2.8235,0.15376 -1.34204,4.3817 -4.45888,8.03835 -9.19558,8.59383 -18.69944,2.14457 -29.29902,8.47037 -34.93051,13.77778 -3.59484,3.37883 -8.56278,5.16857 -13.68522,5.16857 h -2.60735 l 3.22463,-11.80294 0.91061,-0.46277 c 0.0299,-0.0149 0.0746,-0.0448 0.11943,-0.0597 26.42923,-14.41029 45.22137,-15.58289 53.33675,-15.36688 z m -162.03178,7.9458 h 101.62864 l -1.0808,3.96521 c -0.0149,0.0597 -0.0448,0.11943 -0.0597,0.18511 l -5.04522,18.49895 v 0.0299 l -0.32394,1.21813 c -1.88231,6.89666 -8.10006,11.64858 -15.24353,11.64858 h -58.10433 c -7.14347,0 -13.36122,-4.75192 -15.24353,-11.64858 z"
     style="fill:#000000;stroke-width:14.9281"
     id="path2" />
  <g
     id="g5"
     transform="translate(0,-2.2912971)">
    <path
       id="path148077-1-6-5-6-7"
       style="display:inline;fill:none;stroke:#fb773e;stroke-width:2.06942;stroke-linecap:butt;stroke-linejoin:miter;stroke-dasharray:none;stroke-opacity:1"
       d="m 752.18668,-246.49435 c -10.29628,-2.22018 -20.05603,-6.8891 -28.24592,-13.51241 -6.44878,-5.21525 -11.92467,-11.62949 -16.06381,-18.8165 m 33.89512,48.40162 c -8.37492,-5.54158 -17.10548,-10.54562 -26.12012,-14.97109 -4.45544,-2.18727 -9.06107,-4.28712 -12.69862,-7.664 -1.81877,-1.68844 -3.37265,-3.69209 -4.36222,-5.96795 -0.98957,-2.27585 -1.39538,-4.83378 -0.95142,-7.27543 0.35279,-1.94024 1.22193,-3.7499 2.22292,-5.44902 1.00099,-1.69911 2.14192,-3.31407 3.10653,-5.0341 0.35447,-0.63206 0.68889,-1.28375 1.16273,-1.83203 0.23693,-0.27414 0.50836,-0.52083 0.81751,-0.70982 0.30914,-0.18899 0.65707,-0.31925 1.01758,-0.35553 0.36347,-0.0366 0.73626,0.0239 1.06954,0.1735 0.33327,0.1496 0.62621,0.38795 0.84045,0.68385 1.02005,-3.13547 2.34054,-6.17312 3.93751,-9.0578 0.40056,-0.72356 0.82184,-1.44228 1.36332,-2.06741 0.54148,-0.62512 1.21366,-1.15704 1.99655,-1.42362 0.573,-0.19511 1.19561,-0.24254 1.79156,-0.13647 0.59595,0.10607 1.16396,0.36541 1.63445,0.74625 1.0069,-0.61922 2.10404,-1.09145 3.24591,-1.3971 2.06095,-0.55167 4.26686,-0.55167 6.32781,0 1.14186,0.30565 2.23899,0.77788 3.24589,1.3971 0.47047,-0.38087 1.03847,-0.64023 1.63441,-0.74631 0.59595,-0.10607 1.21856,-0.0586 1.79155,0.13652 0.78287,0.26663 1.45499,0.7986 1.99645,1.42374 0.54146,0.62515 0.96275,1.34384 1.36347,2.0673 1.59821,2.8854 2.9219,5.92278 3.94738,9.05778 0.21332,-0.29461 0.50471,-0.53214 0.83628,-0.68169 0.33156,-0.14955 0.70249,-0.21075 1.06452,-0.17564 0.36131,0.035 0.71032,0.16454 1.02048,0.35315 0.31016,0.18861 0.58257,0.43529 0.82031,0.70961 0.47549,0.54865 0.81093,1.20141 1.16623,1.83455 0.96476,1.71916 2.1042,3.33426 3.10322,5.03375 0.99901,1.69948 1.86557,3.50956 2.21647,5.44944 0.44168,2.44171 0.0345,4.99883 -0.95553,7.27408 -0.99008,2.27525 -2.54374,4.27848 -4.36205,5.96691 -3.63662,3.37684 -8.2406,5.4782 -12.6948,7.66639 -9.01336,4.42794 -17.74372,9.43185 -26.12012,14.97109 m 44.1325,-35.87847 c 0.64113,1.69592 1.16221,3.43721 1.55806,5.20653 0.44795,2.00222 0.73605,4.05111 0.67344,6.10187 -0.0908,2.9745 -0.93249,5.92312 -2.42554,8.49736 0.13882,2.57304 -0.41842,5.18032 -1.5969,7.47182 -1.90144,3.69726 -5.28363,6.41102 -8.81771,8.60089 -2.09585,1.29868 -4.28609,2.45778 -6.59441,3.32427 -6.48446,2.43411 -13.85067,2.43439 -20.33502,0 -2.30828,-0.86659 -4.4984,-2.02586 -6.59442,-3.32427 -3.5345,-2.18949 -6.91852,-4.9023 -8.81771,-8.6009 -1.17679,-2.29176 -1.73071,-4.89958 -1.58707,-7.47181 -1.49833,-2.57243 -2.34359,-5.52179 -2.43528,-8.49735 -0.0632,-2.05076 0.22532,-4.09967 0.67346,-6.10187 0.39601,-1.76928 0.91709,-3.51056 1.55807,-5.20654 m 33.78026,-24.4622 c -3.39121,7.36019 -8.93483,13.71303 -15.768,18.06969 -5.41824,3.45454 -11.62849,5.65854 -18.01226,6.39251 m 20.96065,-24.4622 c 3.3912,7.36019 8.93483,13.71303 15.768,18.06969 5.41828,3.45456 11.62857,5.65856 18.01238,6.39251 m -10.22751,-12.52317 c -4.14333,7.187 -9.62241,13.60104 -16.07369,18.81652 -8.18848,6.61991 -17.94394,11.2884 -28.23608,13.51241"
       sodipodi:nodetypes="czccaaaacaaccccaacaasaccaacaaaaaacaaccaccacczc"
       class="UnoptimicedTransforms"
       transform="matrix(-0.09817816,0,0,0.11077083,89.861858,44.405337)"
       inkscape:original-d="m 752.18668,-246.49435 c 0,0 -20.81999,-7.86048 -28.24592,-13.51241 -7.42593,-5.65193 -16.06381,-18.8165 -16.06381,-18.8165 m 33.89512,48.40162 c 0,0 -18.5092,-8.7332 -26.12012,-14.97109 -7.26534,-5.95465 -16.88271,-12.2005 -18.01226,-20.90738 -0.49386,-3.80682 2.94913,-7.28245 5.32945,-10.48312 0.81351,-1.09388 1.5527,-2.66232 2.99782,-2.89738 0.70046,-0.11394 1.90999,0.85735 1.90999,0.85735 0,0 2.07402,-6.28166 3.93751,-9.0578 0.8841,-1.31709 1.73956,-2.99087 3.35987,-3.49103 1.10093,-0.33984 3.0245,0.11798 3.42601,0.60978 1.08141,-0.46543 2.095,-1.09225 3.24591,-1.3971 2.11221,-0.46166 4.38407,-0.50061 6.32781,0 1.15098,0.30461 2.16448,0.93167 3.24589,1.3971 0.40151,-0.4918 2.32504,-0.94962 3.42596,-0.60979 1.62033,0.50015 2.47518,2.17428 3.35992,3.49104 1.86543,2.77634 3.94738,9.05778 3.94738,9.05778 0,0 1.20282,-0.96975 1.9008,-0.85733 1.44761,0.23315 2.19186,1.80222 3.00702,2.89731 2.38114,3.19881 5.81489,6.67767 5.31969,10.48319 -1.13295,8.70655 -10.74701,14.95273 -18.01238,20.90738 -7.61094,6.23788 -26.12012,14.97109 -26.12012,14.97109 m 44.1325,-35.87847 c 0,0 1.19861,3.43959 1.55806,5.20653 0.40916,2.01129 0.84655,4.06399 0.67344,6.10187 -0.24748,2.91323 -2.42554,8.49736 -2.42554,8.49736 0,0 -0.32553,5.20692 -1.5969,7.47182 -1.95297,3.47915 -5.41341,6.18343 -8.81771,8.60089 -1.97706,1.40395 -4.15527,2.75157 -6.59441,3.32427 -6.55757,1.53968 -13.77745,1.53968 -20.33502,0 -2.43915,-0.5727 -4.61736,-1.92032 -6.59442,-3.32427 -3.4043,-2.41746 -6.86695,-5.12075 -8.81771,-8.6009 -1.26965,-2.26506 -1.58707,-7.47181 -1.58707,-7.47181 0,0 -2.18618,-5.58352 -2.43528,-8.49735 -0.17421,-2.03782 0.2643,-4.09058 0.67346,-6.10187 0.35946,-1.76695 1.55807,-5.20654 1.55807,-5.20654 m 33.78026,-24.4622 c 0,0 -8.90847,13.48059 -15.768,18.06969 -5.16045,3.4524 -18.01226,6.39251 -18.01226,6.39251 m 20.96065,-24.4622 c 0,0 8.90846,13.4806 15.768,18.06969 5.16049,3.45241 18.01238,6.39251 18.01238,6.39251 m -10.22751,-12.52317 c 0,0 -8.64762,13.16535 -16.07369,18.81652 -7.42607,5.65117 -28.23608,13.51241 -28.23608,13.51241"
       inkscape:path-effect="#path-effect148079-4-3-7-9-8" />
    <path
       style="font-variation-settings:normal;vector-effect:none;fill:#ffffff;fill-opacity:1;stroke:#002230;stroke-width:0.495281;stroke-linecap:butt;stroke-linejoin:round;stroke-miterlimit:4;stroke-dasharray:none;stroke-dashoffset:0;stroke-opacity:1;-inkscape-stroke:none;stop-color:#000000"
       d="m 12.299859,18.239211 c -0.102012,-0.0083 -0.132468,-0.01508 -0.210805,-0.03086 -0.423733,-0.08519 -0.594653,-0.163369 -1.535494,-0.548689 -1.459214,-0.597619 -3.1077192,-1.023427 -4.6969346,-1.023427 -0.2992267,0 -0.6018628,-0.09044 -0.6752606,0.155487 -0.040463,0.135539 -0.00635,0.265058 0.010563,0.368559 0.035561,0.220283 0.1502394,0.582279 0.3689476,0.832288 0.4795907,0.548229 1.7998197,0.634471 2.523891,0.863944 1.4174561,0.449224 2.5100906,1.765482 3.9442246,1.905215 0.417994,0.04072 0.854848,0.0076 0.933248,0.02797 0.106307,0.02767 0.162186,0.128432 0.194079,0.193047 0.05423,0.109875 0.202462,0.494349 0.303432,0.647351 0.355526,0.538727 0.788574,0.822772 1.396205,0.822772 h 7.861462 c 1.539115,0 1.872313,-2.940785 2.060134,-4.336971 0.02971,-0.220907 0.111352,-0.290107 0.03671,-0.40014 -0.110537,-0.162938 -0.364515,-0.154727 -0.561307,-0.154727 h -2.228036 -7.286271 -1.776402 c -0.279131,0 -0.497064,-0.03918 -0.584957,0.126656 -0.07841,0.147911 -0.07742,0.368879 -0.07743,0.551518 m 0,0 c 0.123704,0.289857 0.52036,1.374515 0.597501,2.034537 0.02564,0.219334 0.02174,0.368227 0.06479,0.515961"
       id="path3"
       sodipodi:nodetypes="cssssssssssssssasccssccsc" />
  </g>
</svg>
