<?xml version="1.0" encoding="UTF-8" standalone="no"?>
<!-- Created with Inkscape (http://www.inkscape.org/) -->

<svg
   width="30mm"
   height="30mm"
   viewBox="0 0 30 29.999998"
   version="1.1"
   id="svg1"
   sodipodi:docname="references.svg"
   inkscape:version="1.3.2 (091e20ef0f, 2023-11-25, custom)"
   xmlns:inkscape="http://www.inkscape.org/namespaces/inkscape"
   xmlns:sodipodi="http://sodipodi.sourceforge.net/DTD/sodipodi-0.dtd"
   xmlns="http://www.w3.org/2000/svg"
   xmlns:svg="http://www.w3.org/2000/svg">
  <sodipodi:namedview
     id="namedview1"
     pagecolor="#ffffff"
     bordercolor="#000000"
     borderopacity="0.25"
     inkscape:showpageshadow="2"
     inkscape:pageopacity="0.0"
     inkscape:pagecheckerboard="0"
     inkscape:deskcolor="#d1d1d1"
     inkscape:document-units="mm"
     inkscape:zoom="4.5850356"
     inkscape:cx="1.3086049"
     inkscape:cy="31.733669"
     inkscape:window-width="2344"
     inkscape:window-height="1320"
     inkscape:window-x="0"
     inkscape:window-y="0"
     inkscape:window-maximized="1"
     inkscape:current-layer="layer1" />
  <defs
     id="defs1">
    <inkscape:path-effect
       effect="spiro"
       id="path-effect148079-4-3-7-9-8"
       is_visible="true"
       lpeversion="1" />
  </defs>
  <g
     id="layer1"
     transform="translate(-12.63891,-5.672721)">
    <path
       id="path148077-1-6-5-6-7"
       style="display:inline;fill:none;stroke:#fb773e;stroke-width:3.92676;stroke-linecap:butt;stroke-linejoin:miter;stroke-dasharray:none;stroke-opacity:1"
       d="m 752.18668,-246.49435 c -10.29628,-2.22018 -20.05603,-6.8891 -28.24592,-13.51241 -6.44878,-5.21525 -11.92467,-11.62949 -16.06381,-18.8165 m 33.89512,48.40162 c -8.37492,-5.54158 -17.10548,-10.54562 -26.12012,-14.97109 -4.45544,-2.18727 -9.06107,-4.28712 -12.69862,-7.664 -1.81877,-1.68844 -3.37265,-3.69209 -4.36222,-5.96795 -0.98957,-2.27585 -1.39538,-4.83378 -0.95142,-7.27543 0.35279,-1.94024 1.22193,-3.7499 2.22292,-5.44902 1.00099,-1.69911 2.14192,-3.31407 3.10653,-5.0341 0.35447,-0.63206 0.68889,-1.28375 1.16273,-1.83203 0.23693,-0.27414 0.50836,-0.52083 0.81751,-0.70982 0.30914,-0.18899 0.65707,-0.31925 1.01758,-0.35553 0.36347,-0.0366 0.73626,0.0239 1.06954,0.1735 0.33327,0.1496 0.62621,0.38795 0.84045,0.68385 1.02005,-3.13547 2.34054,-6.17312 3.93751,-9.0578 0.40056,-0.72356 0.82184,-1.44228 1.36332,-2.06741 0.54148,-0.62512 1.21366,-1.15704 1.99655,-1.42362 0.573,-0.19511 1.19561,-0.24254 1.79156,-0.13647 0.59595,0.10607 1.16396,0.36541 1.63445,0.74625 1.0069,-0.61922 2.10404,-1.09145 3.24591,-1.3971 2.06095,-0.55167 4.26686,-0.55167 6.32781,0 1.14186,0.30565 2.23899,0.77788 3.24589,1.3971 0.47047,-0.38087 1.03847,-0.64023 1.63441,-0.74631 0.59595,-0.10607 1.21856,-0.0586 1.79155,0.13652 0.78287,0.26663 1.45499,0.7986 1.99645,1.42374 0.54146,0.62515 0.96275,1.34384 1.36347,2.0673 1.59821,2.8854 2.9219,5.92278 3.94738,9.05778 0.21332,-0.29461 0.50471,-0.53214 0.83628,-0.68169 0.33156,-0.14955 0.70249,-0.21075 1.06452,-0.17564 0.36131,0.035 0.71032,0.16454 1.02048,0.35315 0.31016,0.18861 0.58257,0.43529 0.82031,0.70961 0.47549,0.54865 0.81093,1.20141 1.16623,1.83455 0.96476,1.71916 2.1042,3.33426 3.10322,5.03375 0.99901,1.69948 1.86557,3.50956 2.21647,5.44944 0.44168,2.44171 0.0345,4.99883 -0.95553,7.27408 -0.99008,2.27525 -2.54374,4.27848 -4.36205,5.96691 -3.63662,3.37684 -8.2406,5.4782 -12.6948,7.66639 -9.01336,4.42794 -17.74372,9.43185 -26.12012,14.97109 m 44.1325,-35.87847 c 0.64113,1.69592 1.16221,3.43721 1.55806,5.20653 0.44795,2.00222 0.73605,4.05111 0.67344,6.10187 -0.0908,2.9745 -0.93249,5.92312 -2.42554,8.49736 0.13882,2.57304 -0.41842,5.18032 -1.5969,7.47182 -1.90144,3.69726 -5.28363,6.41102 -8.81771,8.60089 -2.09585,1.29868 -4.28609,2.45778 -6.59441,3.32427 -6.48446,2.43411 -13.85067,2.43439 -20.33502,0 -2.30828,-0.86659 -4.4984,-2.02586 -6.59442,-3.32427 -3.5345,-2.18949 -6.91852,-4.9023 -8.81771,-8.6009 -1.17679,-2.29176 -1.73071,-4.89958 -1.58707,-7.47181 -1.49833,-2.57243 -2.34359,-5.52179 -2.43528,-8.49735 -0.0632,-2.05076 0.22532,-4.09967 0.67346,-6.10187 0.39601,-1.76928 0.91709,-3.51056 1.55807,-5.20654 m 33.78026,-24.4622 c -3.39121,7.36019 -8.93483,13.71303 -15.768,18.06969 -5.41824,3.45454 -11.62849,5.65854 -18.01226,6.39251 m 20.96065,-24.4622 c 3.3912,7.36019 8.93483,13.71303 15.768,18.06969 5.41828,3.45456 11.62857,5.65856 18.01238,6.39251 m -10.22751,-12.52317 c -4.14333,7.187 -9.62241,13.60104 -16.07369,18.81652 -8.18848,6.61991 -17.94394,11.2884 -28.23608,13.51241"
       sodipodi:nodetypes="czccaaaacaaccccaacaasaccaacaaaaaacaaccaccacczc"
       inkscape:original-d="m 752.18668,-246.49435 c 0,0 -20.81999,-7.86048 -28.24592,-13.51241 -7.42593,-5.65193 -16.06381,-18.8165 -16.06381,-18.8165 m 33.89512,48.40162 c 0,0 -18.5092,-8.7332 -26.12012,-14.97109 -7.26534,-5.95465 -16.88271,-12.2005 -18.01226,-20.90738 -0.49386,-3.80682 2.94913,-7.28245 5.32945,-10.48312 0.81351,-1.09388 1.5527,-2.66232 2.99782,-2.89738 0.70046,-0.11394 1.90999,0.85735 1.90999,0.85735 0,0 2.07402,-6.28166 3.93751,-9.0578 0.8841,-1.31709 1.73956,-2.99087 3.35987,-3.49103 1.10093,-0.33984 3.0245,0.11798 3.42601,0.60978 1.08141,-0.46543 2.095,-1.09225 3.24591,-1.3971 2.11221,-0.46166 4.38407,-0.50061 6.32781,0 1.15098,0.30461 2.16448,0.93167 3.24589,1.3971 0.40151,-0.4918 2.32504,-0.94962 3.42596,-0.60979 1.62033,0.50015 2.47518,2.17428 3.35992,3.49104 1.86543,2.77634 3.94738,9.05778 3.94738,9.05778 0,0 1.20282,-0.96975 1.9008,-0.85733 1.44761,0.23315 2.19186,1.80222 3.00702,2.89731 2.38114,3.19881 5.81489,6.67767 5.31969,10.48319 -1.13295,8.70655 -10.74701,14.95273 -18.01238,20.90738 -7.61094,6.23788 -26.12012,14.97109 -26.12012,14.97109 m 44.1325,-35.87847 c 0,0 1.19861,3.43959 1.55806,5.20653 0.40916,2.01129 0.84655,4.06399 0.67344,6.10187 -0.24748,2.91323 -2.42554,8.49736 -2.42554,8.49736 0,0 -0.32553,5.20692 -1.5969,7.47182 -1.95297,3.47915 -5.41341,6.18343 -8.81771,8.60089 -1.97706,1.40395 -4.15527,2.75157 -6.59441,3.32427 -6.55757,1.53968 -13.77745,1.53968 -20.33502,0 -2.43915,-0.5727 -4.61736,-1.92032 -6.59442,-3.32427 -3.4043,-2.41746 -6.86695,-5.12075 -8.81771,-8.6009 -1.26965,-2.26506 -1.58707,-7.47181 -1.58707,-7.47181 0,0 -2.18618,-5.58352 -2.43528,-8.49735 -0.17421,-2.03782 0.2643,-4.09058 0.67346,-6.10187 0.35946,-1.76695 1.55807,-5.20654 1.55807,-5.20654 m 33.78026,-24.4622 c 0,0 -8.90847,13.48059 -15.768,18.06969 -5.16045,3.4524 -18.01226,6.39251 -18.01226,6.39251 m 20.96065,-24.4622 c 0,0 8.90846,13.4806 15.768,18.06969 5.16049,3.45241 18.01238,6.39251 18.01238,6.39251 m -10.22751,-12.52317 c 0,0 -8.64762,13.16535 -16.07369,18.81652 -7.42607,5.65117 -28.23608,13.51241 -28.23608,13.51241"
       inkscape:path-effect="#path-effect148079-4-3-7-9-8"
       class="UnoptimicedTransforms"
       transform="matrix(-0.1406846,0,0,0.15894874,125.19468,57.744278)" />
    <path
       class="cls-1"
       d="m 23.264878,6.6608376 a 9.6812264,9.6812264 0 0 1 8.056629,15.0446844 l 1.95867,1.958669 0.02059,-0.02059 a 1.2310328,1.2310328 0 0 1 1.736717,0 l 6.303895,6.303894 a 1.2333208,1.2333208 0 0 1 0,1.736719 l -2.745796,2.745794 a 1.2333208,1.2333208 0 0 1 -1.736717,0 l -6.292454,-6.315336 a 1.2310328,1.2310328 0 0 1 0,-1.736716 l 0.02059,-0.02059 -1.958669,-1.958669 A 9.6812264,9.6812264 0 1 1 23.264874,6.6608421 Z m 0,2.1737575 a 7.5074695,7.5074695 0 1 1 -7.507469,7.5074689 7.5074695,7.5074695 0 0 1 7.507469,-7.5074689 z"
       id="path1"
       style="fill:#fb773e;fill-opacity:1;fill-rule:evenodd;stroke-width:0.293818" />
  </g>
</svg>
