<?xml version="1.0" encoding="UTF-8" standalone="no"?>
<!-- Generator: Adobe Illustrator 26.4.0, SVG Export Plug-In . SVG Version: 6.00 Build 0)  -->

<svg
   version="1.1"
   id="Layer_1"
   x="0px"
   y="0px"
   viewBox="0 0 189.0754 349.39473"
   xml:space="preserve"
   sodipodi:docname="tightloops.svg"
   inkscape:version="1.2 (dc2aedaf03, 2022-05-15)"
   inkscape:export-filename="generated/tightloops.png"
   inkscape:export-xdpi="300"
   inkscape:export-ydpi="300"
   width="189.07539"
   height="349.39471"
   xmlns:inkscape="http://www.inkscape.org/namespaces/inkscape"
   xmlns:sodipodi="http://sodipodi.sourceforge.net/DTD/sodipodi-0.dtd"
   xmlns="http://www.w3.org/2000/svg"
   xmlns:svg="http://www.w3.org/2000/svg"><defs
   id="defs259" /><sodipodi:namedview
   id="namedview257"
   pagecolor="#505050"
   bordercolor="#eeeeee"
   borderopacity="1"
   inkscape:showpageshadow="0"
   inkscape:pageopacity="0"
   inkscape:pagecheckerboard="0"
   inkscape:deskcolor="#505050"
   showgrid="false"
   inkscape:zoom="2.3294289"
   inkscape:cx="211.8545"
   inkscape:cy="162.05689"
   inkscape:window-width="2560"
   inkscape:window-height="1400"
   inkscape:window-x="1920"
   inkscape:window-y="18"
   inkscape:window-maximized="1"
   inkscape:current-layer="Layer_1" />
<style
   type="text/css"
   id="style2">
	.st0{fill:#F6B1B2;}
	.st1{fill:#FED4A8;}
	.st2{fill:#BCD4E7;}
	.st3{fill:#C3E2C2;}
	.st4{fill:none;stroke:#FFFFFF;stroke-width:0.9963;stroke-miterlimit:10;}
	.st5{fill:none;stroke:#000000;stroke-width:0.4628;stroke-linejoin:round;stroke-miterlimit:10;}
	.st6{fill:none;stroke:#000000;stroke-width:3.4862;stroke-miterlimit:10;}
	.st7{font-family:'Menlo-Bold';}
	.st8{font-size:10.1264px;}
	.st9{font-family:'Menlo-Regular';}
	.st10{fill:#387FB9;}
	.st11{fill:#E31F26;}
	.st12{fill:#E22028;}
	.st13{fill:#F57F20;}
	.st14{fill:#4EAF49;}
	.st15{fill:#397FBA;}
	.st16{font-size:11px;}
	.st17{fill:none;stroke:#000000;stroke-width:0.5;stroke-miterlimit:10;}
	.st18{fill:none;stroke:#387FB9;stroke-width:1.8412;stroke-linecap:round;stroke-miterlimit:10;}
	.st19{fill:none;stroke:#E31F26;stroke-width:1.8412;stroke-linecap:round;stroke-miterlimit:10;}
	.st20{fill:none;stroke:#F57F20;stroke-width:1.8412;stroke-linecap:round;stroke-miterlimit:10;}
	.st21{fill:none;stroke:#4EAF49;stroke-width:1.8412;stroke-linecap:round;stroke-miterlimit:10;}
</style>
<g
   id="g132"
   transform="translate(-4.9932098e-8,-2.01185)">
	<g
   id="g130">
		<g
   id="g128">
			<g
   id="g126">
				<g
   id="g124">
					<path
   class="st0"
   d="m 37.92,165.47 v 4.84 c 0,1.57 1.27,2.83 2.83,2.83 H 78 c 1.57,0 2.83,-1.27 2.83,-2.83 v -4.84 c 0,-1.57 0,-4.1 0,-5.67 V 103 c 0,-1.57 -1.27,-2.83 -2.83,-2.83 H 40.75 c -1.57,0 -2.83,1.27 -2.83,2.83 v 56.8 c 0,1.57 0,4.1 0,5.67 z"
   id="path4" />
					<path
   class="st1"
   d="M 40.75,100.16 H 78 c 1.57,0 3.76,-0.87 4.91,-1.94 l 31.28,-29.2 c 1.15,-1.07 0.81,-1.94 -0.76,-1.94 H 76.19 c -1.57,0 -3.76,0.87 -4.91,1.94 L 40,98.22 c -1.15,1.08 -0.81,1.94 0.75,1.94 z"
   id="path6" />
					<path
   class="st2"
   d="m 2.49,68.8 v 4.84 c 0,1.57 1.27,2.83 2.83,2.83 h 37.25 c 1.57,0 2.83,-1.27 2.83,-2.83 V 68.8 c 0,-1.57 0.96,-3.67 2.15,-4.69 L 78.69,37.2 C 79.88,36.17 79.57,35.34 78,35.34 H 40.75 c -1.57,0 -3.8,0.83 -4.98,1.86 L 4.63,64.11 C 3.45,65.14 2.49,67.24 2.49,68.8 Z"
   id="path8" />
					<path
   class="st3"
   d="M 80.84,32.5 V 5.34 c 0,-1.57 -1.27,-2.83 -2.83,-2.83 H 40.75 c -1.57,0 -2.83,1.27 -2.83,2.83 V 32.5 c 0,1.57 0.95,3.68 2.12,4.73 l 31.2,27.95 c 1.17,1.05 3.07,2.73 4.26,3.76 l 31.16,27.16 c 1.18,1.03 2.14,3.13 2.14,4.7 v 58.99 c 0,1.57 0,4.1 0,5.67 v 4.84 c 0,1.57 1.27,2.83 2.83,2.83 h 37.25 c 1.57,0 2.83,-1.27 2.83,-2.83 v -4.84 c 0,-1.57 0,-4.1 0,-5.67 V 100.8 c 0,-1.57 -0.96,-3.67 -2.14,-4.7 L 118.41,68.94 c -1.18,-1.03 -3.09,-2.71 -4.26,-3.76 L 82.95,37.23 C 81.79,36.19 80.84,34.07 80.84,32.5 Z"
   id="path10" />
					<path
   class="st4"
   d="M 80.84,32.5 V 5.34 c 0,-1.57 -1.27,-2.83 -2.83,-2.83 H 40.75 c -1.57,0 -2.83,1.27 -2.83,2.83 V 32.5 c 0,1.57 0.95,3.68 2.12,4.73 l 31.2,27.95 c 1.17,1.05 3.07,2.73 4.26,3.76 l 31.16,27.16 c 1.18,1.03 2.14,3.13 2.14,4.7 v 58.99 c 0,1.57 0,4.1 0,5.67 v 4.84 c 0,1.57 1.27,2.83 2.83,2.83 h 37.25 c 1.57,0 2.83,-1.27 2.83,-2.83 v -4.84 c 0,-1.57 0,-4.1 0,-5.67 V 100.8 c 0,-1.57 -0.96,-3.67 -2.14,-4.7 L 118.41,68.94 c -1.18,-1.03 -3.09,-2.71 -4.26,-3.76 L 82.95,37.23 C 81.79,36.19 80.84,34.07 80.84,32.5 Z"
   id="path12" />
					<polygon
   class="st5"
   points="56.49,37.1 49.7,30.3 49.7,37.1 56.49,30.3 "
   id="polygon14" />
					<path
   d="m 59.56,39.85 c 0,0.18 -0.06,0.33 -0.19,0.45 -0.13,0.12 -0.3,0.18 -0.53,0.18 -0.14,0 -0.26,-0.03 -0.39,-0.1 -0.12,-0.07 -0.18,-0.17 -0.18,-0.3 0,-0.15 0.06,-0.27 0.17,-0.37 0.12,-0.1 0.26,-0.17 0.43,-0.21 0.17,-0.04 0.31,-0.06 0.42,-0.08 0.11,-0.01 0.19,-0.02 0.26,-0.02 v 0.45 z m -1.15,-1.26 c 0.15,-0.03 0.31,-0.05 0.48,-0.05 h 0.06 c 0.17,0.02 0.31,0.08 0.43,0.18 0.12,0.1 0.17,0.25 0.17,0.43 v 0.1 c -0.54,0 -0.98,0.08 -1.31,0.24 -0.12,0.06 -0.23,0.14 -0.31,0.23 -0.08,0.1 -0.13,0.21 -0.13,0.33 0,0.12 0.03,0.22 0.09,0.3 0.06,0.08 0.15,0.14 0.25,0.18 0.1,0.04 0.21,0.07 0.3,0.08 0.1,0.02 0.2,0.02 0.3,0.02 0.38,0 0.66,-0.14 0.86,-0.41 0.05,0.26 0.18,0.38 0.38,0.38 0.24,0 0.41,-0.07 0.53,-0.2 0.05,-0.06 0.08,-0.17 0.08,-0.32 V 39.85 H 60.4 v 0.29 L 60.34,40.31 60.19,40.38 60.05,40.31 60,40.17 v -0.84 -0.09 -0.09 c 0,-0.18 -0.06,-0.33 -0.19,-0.45 -0.12,-0.12 -0.27,-0.21 -0.43,-0.25 -0.16,-0.04 -0.33,-0.07 -0.5,-0.07 -0.11,0 -0.21,0 -0.29,0.01 -0.08,0.01 -0.17,0.02 -0.28,0.05 -0.1,0.02 -0.19,0.07 -0.24,0.13 C 58.03,38.63 58,38.71 58,38.81 l 0.07,0.19 0.19,0.08 0.19,-0.07 0.08,-0.19 c 0,-0.1 -0.04,-0.17 -0.12,-0.23 z"
   id="path16" />
					<path
   d="m 61.27,38.77 0.11,0.08 h 3.93 l 0.11,-0.08 -0.12,-0.09 h -3.89 -0.06 z m 0,1.18 0.08,0.08 h 3.94 l 0.12,-0.08 -0.11,-0.08 h -3.94 -0.05 z"
   id="path18" />
					<path
   d="m 66.2,38.68 h 0.12 c 0.12,0 0.21,0.02 0.29,0.05 l 0.23,0.17 0.16,0.18 0.17,0.17 0.21,0.21 0.07,0.09 -0.04,0.07 -0.12,0.12 -0.1,0.09 c -0.21,0.21 -0.34,0.33 -0.4,0.38 -0.17,0.11 -0.37,0.17 -0.61,0.17 v 0.22 h 1.03 v -0.22 l -0.09,-0.09 c 0,-0.07 0.07,-0.16 0.2,-0.28 l 0.05,-0.05 0.06,-0.06 0.05,-0.05 0.1,-0.1 0.04,-0.03 0.04,0.02 0.06,0.07 0.05,0.05 0.15,0.14 0.19,0.19 0.06,0.1 -0.13,0.08 v 0.22 l 0.48,-0.02 h 0.45 l 0.24,0.02 V 40.37 H 69.07 L 68.84,40.33 68.7,40.26 68.56,40.13 C 68.52,40.08 68.42,39.99 68.28,39.85 68.14,39.71 68.03,39.6 67.96,39.53 l -0.02,-0.03 -0.03,-0.03 -0.01,-0.03 0.04,-0.06 0.11,-0.11 0.09,-0.09 c 0.18,-0.18 0.3,-0.29 0.37,-0.34 0.16,-0.11 0.36,-0.16 0.59,-0.16 v -0.22 h -1.03 v 0.22 l 0.06,0.03 0.02,0.07 -0.04,0.13 -0.15,0.16 -0.11,0.1 -0.08,0.08 -0.04,0.02 c -0.03,0 -0.11,-0.07 -0.25,-0.22 -0.14,-0.15 -0.21,-0.23 -0.22,-0.25 l -0.01,-0.03 0.13,-0.08 v -0.22 l -0.48,0.02 h -0.44 l -0.24,-0.02 v 0.21 z"
   id="path20" />
					<path
   d="m 24.62,64.53 c 0.44,-0.35 0.67,-0.75 0.67,-1.22 0,-0.43 -0.21,-0.79 -0.62,-1.07 -0.41,-0.28 -0.94,-0.42 -1.58,-0.42 h -2.84 c -0.11,0 -0.19,0.01 -0.23,0.03 -0.04,0.02 -0.06,0.08 -0.06,0.17 l 0.06,0.09 c 0.04,0.01 0.11,0.01 0.22,0.01 0.14,0 0.27,0.01 0.38,0.02 l 0.15,0.02 0.08,0.04 0.03,0.09 c 0,0.02 -0.01,0.08 -0.04,0.19 l -1.33,5.35 c -0.05,0.21 -0.12,0.34 -0.21,0.39 -0.09,0.05 -0.32,0.08 -0.69,0.08 -0.11,0 -0.18,0.01 -0.21,0.03 -0.04,0.02 -0.05,0.08 -0.05,0.17 0,0.07 0.05,0.11 0.14,0.11 0.09,0 0.3,0 0.63,-0.01 0.33,-0.01 0.53,-0.01 0.63,-0.01 0.09,0 0.3,0 0.63,0.01 0.33,0.01 0.54,0.01 0.63,0.01 h 0.09 l 0.07,-0.05 0.04,-0.14 -0.06,-0.09 c -0.04,-0.01 -0.11,-0.01 -0.22,-0.01 -0.23,0 -0.4,-0.01 -0.5,-0.03 -0.1,-0.02 -0.15,-0.07 -0.15,-0.15 l 0.01,-0.1 0.01,-0.07 0.66,-2.64 h 1.19 c 0.41,0 0.69,0.09 0.85,0.28 0.16,0.19 0.24,0.4 0.24,0.63 0,0.1 -0.05,0.33 -0.14,0.69 -0.11,0.43 -0.16,0.71 -0.16,0.85 0,0.2 0.04,0.37 0.13,0.52 0.09,0.15 0.18,0.26 0.29,0.32 0.11,0.07 0.24,0.12 0.39,0.16 0.15,0.04 0.26,0.06 0.32,0.06 h 0.19 c 0.36,0 0.65,-0.15 0.87,-0.45 0.22,-0.3 0.33,-0.53 0.33,-0.69 l -0.12,-0.12 c -0.06,0 -0.1,0.05 -0.13,0.14 -0.11,0.33 -0.25,0.56 -0.42,0.7 -0.17,0.14 -0.33,0.21 -0.48,0.21 -0.15,0 -0.26,-0.05 -0.31,-0.14 -0.06,-0.1 -0.08,-0.25 -0.08,-0.46 0,-0.23 0.03,-0.6 0.1,-1.14 0.03,-0.19 0.04,-0.34 0.04,-0.47 0,-0.55 -0.31,-0.94 -0.94,-1.18 0.55,-0.13 1.06,-0.36 1.5,-0.71 z m -2.86,-2.3 0.18,-0.09 c 0.06,-0.01 0.26,-0.01 0.61,-0.01 0.17,0 0.3,0 0.39,0 0.09,0 0.22,0.01 0.39,0.03 0.17,0.02 0.3,0.05 0.4,0.09 0.1,0.04 0.2,0.1 0.31,0.17 0.11,0.07 0.19,0.16 0.24,0.28 0.05,0.12 0.08,0.25 0.08,0.41 0,0.21 -0.05,0.45 -0.14,0.73 -0.09,0.28 -0.23,0.51 -0.41,0.69 -0.39,0.39 -0.95,0.58 -1.68,0.58 h -1.12 l 0.65,-2.6 c 0.04,-0.13 0.07,-0.23 0.1,-0.28 z"
   id="path22" />
					<path
   d="m 27.8,65.52 c -0.02,-0.02 -0.08,-0.03 -0.18,-0.03 -0.3,0.3 -0.76,0.45 -1.37,0.45 v 0.25 c 0.42,0 0.76,-0.07 1.01,-0.2 v 3.56 c 0,0.09 -0.01,0.16 -0.03,0.19 -0.02,0.03 -0.08,0.07 -0.18,0.09 -0.1,0.03 -0.26,0.04 -0.49,0.04 H 26.3 v 0.25 c 0.33,-0.02 0.75,-0.03 1.24,-0.03 0.42,0 0.84,0.01 1.25,0.03 v -0.25 h -0.27 c -0.23,0 -0.39,-0.01 -0.49,-0.04 -0.1,-0.03 -0.16,-0.06 -0.18,-0.09 -0.02,-0.03 -0.03,-0.1 -0.03,-0.19 v -3.86 c 0.01,-0.1 0,-0.15 -0.02,-0.17 z"
   id="path24" />
					<polygon
   class="st5"
   points="92.01,68.84 85.22,62.05 85.22,68.84 92.01,62.05 "
   id="polygon26" />
					<path
   d="m 95.6,71.92 c -0.17,0.21 -0.41,0.31 -0.7,0.31 -0.28,0 -0.5,-0.1 -0.66,-0.3 l -0.08,-0.17 v -1.05 c 0.01,-0.06 0.07,-0.12 0.18,-0.2 0.18,-0.13 0.39,-0.19 0.61,-0.19 0.31,0 0.55,0.12 0.7,0.35 0.1,0.15 0.14,0.35 0.14,0.6 v 0.08 c -0.02,0.25 -0.08,0.44 -0.19,0.57 z m -2.3,-2.75 h 0.09 l 0.16,0.01 0.11,0.07 0.05,0.17 v 0.08 0.07 2.77 h 0.2 l 0.18,-0.29 c 0.09,0.11 0.21,0.2 0.36,0.26 0.16,0.06 0.31,0.09 0.47,0.09 0.22,0 0.43,-0.04 0.63,-0.12 0.2,-0.08 0.38,-0.21 0.52,-0.39 0.14,-0.18 0.21,-0.38 0.21,-0.62 v -0.04 c -0.01,-0.31 -0.15,-0.57 -0.41,-0.77 -0.26,-0.2 -0.55,-0.31 -0.87,-0.31 -0.34,0 -0.63,0.09 -0.88,0.28 v -1.54 l -0.21,0.01 -0.63,0.04 v 0.23 z"
   id="path28" />
					<path
   d="m 97.14,70.51 0.11,0.08 h 3.93 l 0.11,-0.08 -0.12,-0.09 h -3.89 -0.06 z m 0,1.18 0.08,0.08 h 3.94 l 0.12,-0.08 -0.11,-0.08 h -3.94 -0.05 z"
   id="path30" />
					<path
   d="m 102.17,71.07 h 0.21 c 0.02,-0.24 0.07,-0.41 0.15,-0.51 0.1,-0.13 0.3,-0.19 0.6,-0.19 h 0.13 0.12 0.42 c -0.04,0.05 -0.18,0.19 -0.4,0.43 l -0.94,0.99 -0.09,0.09 -0.1,0.1 -0.09,0.1 -0.07,0.1 -0.02,0.07 0.12,0.09 h 2.11 l 0.1,-0.99 h -0.21 c -0.02,0.23 -0.07,0.42 -0.15,0.55 -0.08,0.13 -0.23,0.22 -0.45,0.24 -0.09,0.01 -0.23,0.01 -0.41,0.01 h -0.5 c 0.04,-0.05 0.11,-0.12 0.2,-0.21 0.09,-0.09 0.16,-0.17 0.2,-0.21 l 0.94,-0.99 0.08,-0.08 0.1,-0.1 0.09,-0.1 0.07,-0.09 0.02,-0.07 -0.12,-0.09 h -2.04 z"
   id="path32" />
					<path
   d="m 42.36,93.6 v 0.42 h 0.29 c 0.49,0 0.79,0.04 0.9,0.12 0.11,0.08 0.17,0.27 0.17,0.55 v 7.59 c 0,0.29 -0.06,0.47 -0.17,0.55 -0.11,0.08 -0.42,0.12 -0.9,0.12 h -0.29 v 0.42 c 0.23,-0.02 0.91,-0.03 2.05,-0.03 1.18,0 1.9,0.01 2.18,0.03 v -0.42 h -0.43 c -0.58,0 -0.94,-0.04 -1.08,-0.13 -0.13,-0.09 -0.2,-0.27 -0.2,-0.56 v -7.68 c 0,-0.25 0.03,-0.41 0.1,-0.47 0.07,-0.07 0.25,-0.1 0.56,-0.1 h 1.54 c 0.95,0 1.58,0.2 1.91,0.6 0.33,0.4 0.54,1.13 0.65,2.19 h 0.32 l -0.37,-3.2 z"
   id="path34" />
					<path
   d="m 50.95,104.23 h 0.21 c 0.02,-0.24 0.07,-0.41 0.15,-0.51 0.1,-0.13 0.3,-0.19 0.6,-0.19 h 0.13 0.12 0.42 c -0.04,0.05 -0.18,0.19 -0.4,0.43 l -0.94,0.99 -0.09,0.09 -0.1,0.1 -0.09,0.1 -0.07,0.1 -0.02,0.07 0.12,0.09 h 2.11 l 0.1,-0.99 h -0.21 c -0.02,0.23 -0.07,0.42 -0.15,0.55 -0.08,0.13 -0.23,0.22 -0.45,0.24 -0.09,0.01 -0.23,0.01 -0.41,0.01 h -0.5 c 0.04,-0.05 0.11,-0.12 0.2,-0.21 0.09,-0.09 0.16,-0.17 0.2,-0.21 l 0.94,-0.99 0.08,-0.08 0.1,-0.1 0.09,-0.1 0.07,-0.09 0.02,-0.07 -0.12,-0.09 h -2.04 z"
   id="path36" />
					<path
   d="m 54.36,103.48 -0.07,0.2 0.08,0.21 0.22,0.09 0.22,-0.09 0.09,-0.21 -0.08,-0.21 -0.22,-0.09 h -0.04 z m 0.06,2.81 -0.07,0.09 v 0 l 0.03,0.06 0.06,0.02 c 0.06,0 0.16,-0.09 0.29,-0.26 0.16,-0.23 0.24,-0.48 0.24,-0.74 0,-0.15 -0.03,-0.28 -0.09,-0.4 -0.06,-0.11 -0.16,-0.17 -0.3,-0.17 l -0.21,0.11 -0.08,0.22 0.09,0.21 0.21,0.08 0.21,-0.07 c 0,0.34 -0.13,0.62 -0.38,0.85 z"
   id="path38" />
					<path
   d="m 56.68,103.31 -0.15,0.02 -0.13,0.03 -0.14,0.05 -0.12,0.08 c -0.14,0.11 -0.2,0.25 -0.2,0.41 l 0.02,0.16 0.07,0.13 0.1,0.1 0.14,0.08 0.15,0.06 0.17,0.04 0.16,0.03 0.17,0.03 0.15,0.02 c 0.44,0.07 0.65,0.21 0.65,0.43 l -0.08,0.23 -0.22,0.13 -0.24,0.05 -0.21,0.01 c -0.42,0 -0.69,-0.22 -0.82,-0.65 l -0.11,-0.1 -0.11,0.12 v 0.04 0.03 0.61 l 0.08,0.12 0.12,-0.08 0.07,-0.07 0.07,-0.05 v 0 l 0.02,0.01 0.06,0.04 c 0.16,0.1 0.36,0.15 0.6,0.15 0.27,0 0.5,-0.05 0.7,-0.16 0.2,-0.11 0.3,-0.28 0.3,-0.51 0,-0.1 -0.02,-0.2 -0.07,-0.28 l -0.17,-0.19 c -0.07,-0.05 -0.15,-0.09 -0.26,-0.12 -0.11,-0.04 -0.21,-0.06 -0.29,-0.08 -0.08,-0.01 -0.18,-0.03 -0.31,-0.05 -0.12,-0.02 -0.21,-0.03 -0.26,-0.04 -0.28,-0.06 -0.42,-0.17 -0.42,-0.32 l 0.08,-0.19 0.21,-0.11 0.22,-0.04 0.18,-0.01 h 0.05 c 0.17,0 0.33,0.04 0.46,0.12 0.13,0.08 0.2,0.21 0.2,0.39 l 0.1,0.1 0.11,-0.11 v -0.56 l -0.08,-0.1 -0.12,0.06 -0.09,0.06 -0.1,-0.04 -0.11,-0.04 c -0.11,-0.03 -0.23,-0.05 -0.36,-0.05 H 56.8 Z"
   id="path40" />
					<path
   d="m 58.74,103.6 h 0.07 0.14 l 0.1,0.03 0.08,0.09 0.02,0.17 v 0.95 c 0,0.15 0.02,0.27 0.06,0.35 0.12,0.25 0.42,0.37 0.9,0.37 h 0.07 c 0.14,-0.01 0.28,-0.05 0.42,-0.13 0.14,-0.08 0.23,-0.18 0.29,-0.29 v 0.42 l 0.84,-0.05 v -0.22 h -0.08 c -0.12,0 -0.2,-0.02 -0.25,-0.05 -0.05,-0.03 -0.08,-0.11 -0.08,-0.22 v -1.7 l -0.86,0.05 v 0.22 h 0.07 c 0.12,0 0.2,0.01 0.26,0.04 0.06,0.03 0.08,0.1 0.08,0.2 v 0.81 c 0,0.22 -0.07,0.4 -0.21,0.54 -0.14,0.14 -0.33,0.21 -0.56,0.21 -0.22,0 -0.37,-0.05 -0.44,-0.14 -0.04,-0.06 -0.06,-0.15 -0.06,-0.29 v -1.64 l -0.21,0.01 -0.64,0.04 v 0.23 z"
   id="path42" />
					<path
   d="m 62.47,103.6 h 0.08 l 0.17,0.01 0.11,0.07 0.05,0.17 v 1.26 l -0.05,0.12 -0.1,0.05 -0.15,0.01 h -0.11 v 0.22 l 0.48,-0.02 h 0.5 l 0.28,0.02 v -0.22 h -0.15 l -0.2,-0.03 -0.07,-0.13 v -0.89 c 0,-0.23 0.08,-0.41 0.25,-0.54 0.17,-0.14 0.36,-0.2 0.59,-0.2 h 0.01 c 0.12,0 0.22,0.03 0.29,0.09 l 0.12,0.2 c 0.01,0.07 0.02,0.16 0.02,0.26 v 1.08 c 0,0.11 -0.09,0.17 -0.27,0.17 h -0.07 -0.07 v 0.22 l 0.28,-0.01 h 0.99 V 105.3 H 65.3 l -0.2,-0.03 -0.07,-0.13 v -0.89 c 0,-0.23 0.08,-0.41 0.25,-0.54 0.17,-0.14 0.36,-0.2 0.59,-0.2 h 0.01 c 0.12,0 0.22,0.03 0.29,0.09 l 0.12,0.2 c 0.01,0.07 0.02,0.16 0.02,0.26 v 1.08 c 0,0.11 -0.09,0.17 -0.27,0.17 H 65.97 65.9 v 0.22 l 0.48,-0.02 h 0.5 l 0.28,0.02 v -0.22 H 67.08 67 c -0.17,0 -0.26,-0.06 -0.26,-0.18 v -0.05 -0.04 -1.08 c -0.04,-0.41 -0.32,-0.62 -0.85,-0.62 -0.34,0 -0.61,0.11 -0.82,0.34 l -0.09,0.12 c -0.01,-0.1 -0.05,-0.18 -0.12,-0.25 -0.07,-0.07 -0.15,-0.11 -0.25,-0.14 -0.1,-0.03 -0.18,-0.05 -0.25,-0.06 l -0.19,-0.01 c -0.38,0 -0.67,0.13 -0.87,0.39 l -0.06,0.1 v -0.49 l -0.82,0.05 v 0.21 z"
   id="path44" />
					<path
   d="m 69.38,101.94 c -0.35,0.26 -0.62,0.6 -0.81,1.02 -0.19,0.42 -0.29,0.85 -0.29,1.3 0,0.5 0.11,0.96 0.33,1.39 0.22,0.43 0.54,0.78 0.95,1.07 l 0.1,0.04 0.06,-0.02 0.02,-0.05 v -0.03 l -0.02,-0.02 -0.02,-0.02 -0.02,-0.02 -0.02,-0.01 c -0.33,-0.26 -0.58,-0.59 -0.74,-1.01 -0.16,-0.42 -0.25,-0.85 -0.25,-1.31 v -0.12 c 0.02,-0.86 0.31,-1.55 0.86,-2.09 l 0.12,-0.1 0.09,-0.11 -0.07,-0.07 h -0.04 c -0.05,0.01 -0.13,0.07 -0.25,0.16 z"
   id="path46" />
					<path
   d="m 70.51,103.6 h 0.07 0.07 c 0.15,0 0.26,0.06 0.33,0.19 0.48,0.9 0.75,1.43 0.83,1.58 l 0.07,0.14 v 0.01 l -0.03,0.09 -0.07,0.12 -0.05,0.09 c -0.09,0.17 -0.19,0.3 -0.29,0.4 -0.1,0.1 -0.23,0.15 -0.38,0.15 h -0.01 c -0.05,0 -0.12,-0.02 -0.21,-0.05 v 0 c 0.09,-0.04 0.13,-0.12 0.13,-0.22 l -0.07,-0.17 -0.17,-0.07 -0.18,0.07 -0.07,0.17 c 0,0.14 0.06,0.24 0.18,0.32 0.12,0.08 0.25,0.12 0.39,0.12 h 0.01 c 0.35,0 0.65,-0.23 0.89,-0.7 l 0.15,-0.29 c 0.09,-0.17 0.23,-0.43 0.41,-0.78 0.18,-0.35 0.32,-0.61 0.42,-0.79 0.07,-0.14 0.14,-0.23 0.2,-0.27 0.09,-0.07 0.21,-0.1 0.36,-0.1 v -0.22 h -0.94 v 0.22 l 0.15,0.05 0.06,0.13 -0.01,0.07 -0.03,0.06 -0.04,0.07 -0.03,0.06 c -0.06,0.11 -0.15,0.28 -0.27,0.52 -0.12,0.23 -0.21,0.4 -0.27,0.52 l -0.08,-0.16 -0.08,-0.15 c -0.01,-0.02 -0.18,-0.34 -0.5,-0.95 l -0.04,-0.1 v -0.01 c 0.01,-0.06 0.09,-0.08 0.26,-0.08 v -0.22 l -0.48,0.02 h -0.45 l -0.25,-0.02 v 0.18 z"
   id="path48" />
					<path
   d="m 74.27,101.85 0.03,0.06 0.07,0.06 0.05,0.04 c 0.31,0.27 0.54,0.61 0.7,1.01 0.15,0.4 0.23,0.82 0.23,1.27 0,0.91 -0.29,1.65 -0.88,2.21 l -0.05,0.04 -0.07,0.05 -0.05,0.05 -0.02,0.05 0.08,0.07 h 0.01 c 0.04,0 0.12,-0.05 0.24,-0.15 0.36,-0.27 0.64,-0.61 0.83,-1.03 0.19,-0.42 0.29,-0.86 0.29,-1.32 0,-0.49 -0.11,-0.95 -0.34,-1.39 -0.22,-0.44 -0.54,-0.79 -0.94,-1.05 l -0.1,-0.04 h -0.03 z"
   id="path50" />
					<path
   d="m 50.57,133.6 c -0.23,-0.27 -0.35,-0.65 -0.35,-1.14 0,-0.2 0.02,-0.44 0.06,-0.72 0.04,-0.28 0.13,-0.6 0.25,-0.95 0.12,-0.36 0.28,-0.69 0.47,-0.98 0.19,-0.3 0.44,-0.55 0.76,-0.75 0.32,-0.21 0.68,-0.31 1.08,-0.31 0.36,0 0.67,0.11 0.93,0.32 0.25,0.22 0.38,0.58 0.38,1.08 0,0.31 -0.06,0.71 -0.19,1.22 -0.13,0.51 -0.31,0.95 -0.54,1.32 -0.25,0.41 -0.55,0.73 -0.9,0.97 -0.35,0.23 -0.7,0.35 -1.03,0.35 -0.38,0 -0.68,-0.14 -0.92,-0.41 z m 6.22,-5.32 c 0,-0.1 -0.03,-0.17 -0.09,-0.22 l -0.18,-0.09 c -0.06,0 -0.14,-0.01 -0.26,-0.01 h -3.17 c -0.52,0 -1.01,0.13 -1.48,0.4 -0.47,0.27 -0.87,0.61 -1.18,1.01 -0.32,0.41 -0.57,0.85 -0.75,1.32 -0.19,0.47 -0.28,0.93 -0.28,1.36 0,0.63 0.19,1.16 0.57,1.59 0.38,0.43 0.88,0.65 1.51,0.65 0.87,0 1.68,-0.4 2.42,-1.2 0.75,-0.8 1.12,-1.72 1.12,-2.78 0,-0.62 -0.16,-1.15 -0.47,-1.58 h 1.59 c 0.43,0.01 0.65,-0.14 0.65,-0.45 z"
   id="path52" />
					<path
   d="m 57.62,134.38 h 0.07 0.07 c 0.15,0 0.26,0.06 0.33,0.19 0.48,0.9 0.75,1.43 0.83,1.58 l 0.07,0.14 v 0.01 l -0.03,0.09 -0.07,0.12 -0.05,0.09 c -0.09,0.17 -0.19,0.3 -0.29,0.4 -0.1,0.1 -0.23,0.15 -0.38,0.15 h -0.01 c -0.05,0 -0.12,-0.02 -0.21,-0.05 v 0 c 0.09,-0.04 0.13,-0.12 0.13,-0.22 l -0.07,-0.17 -0.17,-0.07 -0.18,0.07 -0.07,0.17 c 0,0.14 0.06,0.24 0.18,0.32 0.12,0.08 0.25,0.12 0.39,0.12 h 0.01 c 0.35,0 0.65,-0.23 0.89,-0.7 l 0.15,-0.29 c 0.09,-0.17 0.23,-0.43 0.41,-0.78 0.18,-0.35 0.32,-0.61 0.42,-0.79 0.07,-0.14 0.14,-0.23 0.2,-0.27 0.09,-0.07 0.21,-0.1 0.36,-0.1 v -0.22 h -0.94 v 0.22 l 0.15,0.05 0.06,0.13 -0.01,0.07 -0.03,0.06 -0.04,0.07 -0.03,0.06 c -0.06,0.11 -0.15,0.28 -0.27,0.52 -0.12,0.23 -0.21,0.4 -0.27,0.52 l -0.08,-0.16 -0.08,-0.15 c -0.01,-0.02 -0.18,-0.34 -0.5,-0.95 l -0.04,-0.1 v -0.01 c 0.01,-0.06 0.09,-0.08 0.26,-0.08 v -0.22 l -0.48,0.02 H 57.85 L 57.6,134.2 v 0.18 z"
   id="path54" />
					<path
   d="m 61.86,135.05 c 0.06,-0.02 0.13,-0.05 0.23,-0.09 0.1,-0.05 0.16,-0.07 0.19,-0.08 l 1.83,-0.81 c 0.13,-0.06 0.32,-0.14 0.57,-0.25 0.25,-0.11 0.44,-0.2 0.57,-0.25 l 0.11,-0.1 -0.03,-0.06 -0.06,-0.03 -0.14,0.05 c -0.27,0.11 -0.55,0.23 -0.85,0.36 -0.3,0.13 -0.63,0.28 -0.98,0.44 -0.35,0.16 -0.63,0.29 -0.84,0.38 l -0.83,0.36 -0.08,0.09 0.08,0.09 0.83,0.36 c 0.21,0.09 0.49,0.22 0.84,0.38 0.35,0.16 0.68,0.31 0.98,0.44 0.3,0.13 0.58,0.25 0.85,0.36 l 0.14,0.05 0.06,-0.03 0.03,-0.06 -0.04,-0.07 -0.12,-0.06 -0.09,-0.04 c -0.22,-0.1 -0.56,-0.24 -1,-0.44 l -1.83,-0.81 c -0.03,-0.01 -0.09,-0.04 -0.19,-0.08 -0.1,-0.04 -0.17,-0.08 -0.23,-0.1 z"
   id="path56" />
					<path
   d="m 66.95,135.69 0.08,-0.2 -0.07,-0.2 -0.2,-0.08 -0.2,0.08 c -0.05,0.06 -0.07,0.13 -0.07,0.22 0,0.19 0.06,0.35 0.19,0.49 0.13,0.14 0.28,0.24 0.45,0.3 0.17,0.06 0.33,0.09 0.5,0.09 0.21,0 0.42,-0.04 0.62,-0.13 0.2,-0.09 0.37,-0.22 0.51,-0.39 0.14,-0.17 0.21,-0.37 0.21,-0.6 0,-0.3 -0.11,-0.56 -0.34,-0.77 -0.23,-0.21 -0.51,-0.32 -0.83,-0.32 -0.32,0 -0.58,0.08 -0.78,0.24 v -0.89 c 0.23,0.04 0.38,0.06 0.45,0.06 h 0.08 c 0.43,0 0.8,-0.14 1.11,-0.43 l 0.08,-0.12 v -0.02 l -0.08,-0.06 -0.08,0.04 -0.04,0.01 -0.16,0.04 c -0.19,0.05 -0.4,0.08 -0.61,0.08 -0.32,0 -0.58,-0.04 -0.79,-0.12 l -0.1,-0.03 h -0.02 l -0.06,0.06 v 1.61 l 0.09,0.11 0.08,-0.03 0.08,-0.08 0.06,-0.06 c 0.18,-0.15 0.39,-0.22 0.65,-0.22 0.13,0 0.25,0.03 0.34,0.08 0.09,0.05 0.17,0.13 0.21,0.22 0.05,0.09 0.08,0.19 0.1,0.29 0.02,0.1 0.03,0.21 0.03,0.32 0,0.25 -0.05,0.44 -0.14,0.57 -0.15,0.22 -0.39,0.33 -0.7,0.33 -0.17,0 -0.33,-0.04 -0.48,-0.11 -0.15,-0.07 -0.27,-0.18 -0.35,-0.32 z"
   id="path58" />
					<path
   d="M 119.35,99.19 C 119.12,98.92 119,98.54 119,98.05 c 0,-0.2 0.02,-0.44 0.06,-0.72 0.04,-0.28 0.13,-0.6 0.25,-0.95 0.12,-0.36 0.28,-0.69 0.47,-0.98 0.19,-0.3 0.44,-0.55 0.76,-0.75 0.32,-0.21 0.68,-0.31 1.08,-0.31 0.36,0 0.67,0.11 0.93,0.32 0.25,0.22 0.38,0.58 0.38,1.08 0,0.31 -0.06,0.71 -0.19,1.22 -0.13,0.51 -0.31,0.95 -0.54,1.32 -0.25,0.41 -0.55,0.73 -0.9,0.97 -0.35,0.23 -0.7,0.35 -1.03,0.35 -0.38,0 -0.69,-0.14 -0.92,-0.41 z m 6.22,-5.32 c 0,-0.1 -0.03,-0.17 -0.09,-0.22 l -0.18,-0.09 c -0.06,0 -0.14,-0.01 -0.26,-0.01 h -3.17 c -0.52,0 -1.01,0.13 -1.48,0.4 -0.47,0.27 -0.87,0.61 -1.18,1.01 -0.32,0.41 -0.57,0.85 -0.75,1.32 -0.19,0.47 -0.28,0.93 -0.28,1.36 0,0.63 0.19,1.16 0.57,1.59 0.38,0.43 0.88,0.65 1.51,0.65 0.87,0 1.68,-0.4 2.42,-1.2 0.75,-0.8 1.12,-1.72 1.12,-2.78 0,-0.62 -0.16,-1.15 -0.47,-1.58 h 1.59 c 0.43,0.01 0.65,-0.14 0.65,-0.45 z"
   id="path60" />
					<path
   d="m 126.52,100.61 h 0.21 c 0.02,-0.24 0.07,-0.41 0.15,-0.51 0.1,-0.13 0.3,-0.19 0.6,-0.19 h 0.13 0.12 0.42 c -0.04,0.05 -0.18,0.19 -0.4,0.43 l -0.94,0.99 -0.09,0.09 -0.1,0.1 -0.09,0.1 -0.07,0.1 -0.02,0.07 0.12,0.09 h 2.11 l 0.1,-0.99 h -0.21 c -0.02,0.23 -0.07,0.42 -0.15,0.55 -0.08,0.13 -0.23,0.22 -0.45,0.24 -0.09,0.01 -0.23,0.01 -0.41,0.01 h -0.5 c 0.04,-0.05 0.11,-0.12 0.2,-0.21 0.09,-0.09 0.16,-0.17 0.2,-0.21 l 0.94,-0.99 0.08,-0.08 0.1,-0.1 0.09,-0.1 0.07,-0.09 0.02,-0.07 -0.12,-0.09 h -2.04 z"
   id="path62" />
					<path
   d="m 135.67,100.65 c -0.06,0.02 -0.13,0.05 -0.23,0.09 -0.1,0.05 -0.16,0.07 -0.19,0.08 l -1.83,0.81 c -0.13,0.06 -0.32,0.14 -0.57,0.25 -0.25,0.11 -0.44,0.2 -0.57,0.25 l -0.11,0.1 0.03,0.06 0.06,0.03 0.14,-0.05 c 0.27,-0.11 0.55,-0.23 0.85,-0.36 0.3,-0.13 0.63,-0.28 0.98,-0.44 0.35,-0.16 0.63,-0.29 0.84,-0.38 l 0.83,-0.36 0.08,-0.09 -0.08,-0.09 -0.83,-0.36 c -0.21,-0.09 -0.49,-0.22 -0.84,-0.38 -0.35,-0.16 -0.68,-0.31 -0.98,-0.44 -0.3,-0.13 -0.58,-0.25 -0.85,-0.36 l -0.14,-0.05 -0.06,0.03 -0.03,0.06 0.04,0.07 0.12,0.06 0.09,0.04 c 0.22,0.1 0.56,0.24 1,0.44 l 1.83,0.81 c 0.03,0.01 0.09,0.04 0.19,0.08 0.1,0.04 0.18,0.07 0.23,0.1 z"
   id="path64" />
					<path
   d="m 140.63,98.76 c 0.37,0 0.58,0.16 0.63,0.49 v 0.03 c 0,0.18 -0.05,0.34 -0.16,0.48 -0.11,0.14 -0.25,0.23 -0.41,0.27 -0.09,0.02 -0.2,0.03 -0.35,0.03 h -0.07 l -0.08,0.03 -0.02,0.07 0.1,0.07 h 0.33 c 0.23,0 0.42,0.06 0.57,0.19 0.15,0.13 0.23,0.32 0.23,0.59 0,0.21 -0.06,0.39 -0.19,0.54 -0.13,0.15 -0.32,0.22 -0.56,0.22 -0.4,0 -0.7,-0.08 -0.89,-0.25 l 0.19,-0.1 0.07,-0.2 -0.09,-0.21 -0.22,-0.08 c -0.09,0 -0.17,0.03 -0.22,0.1 l -0.08,0.23 c 0,0.14 0.04,0.27 0.13,0.37 0.09,0.1 0.2,0.18 0.33,0.23 0.14,0.05 0.27,0.09 0.4,0.11 0.13,0.02 0.26,0.03 0.39,0.03 0.2,0 0.39,-0.03 0.59,-0.1 0.2,-0.07 0.37,-0.18 0.52,-0.33 0.15,-0.15 0.22,-0.33 0.22,-0.54 0,-0.24 -0.1,-0.44 -0.3,-0.61 -0.2,-0.17 -0.41,-0.26 -0.63,-0.28 0.23,-0.09 0.41,-0.2 0.55,-0.33 0.14,-0.13 0.21,-0.31 0.21,-0.52 0,-0.16 -0.06,-0.3 -0.19,-0.41 -0.13,-0.11 -0.27,-0.19 -0.44,-0.24 -0.16,-0.05 -0.33,-0.07 -0.51,-0.07 -0.11,0 -0.22,0.01 -0.33,0.03 -0.11,0.02 -0.23,0.05 -0.35,0.1 -0.12,0.05 -0.22,0.12 -0.3,0.22 -0.08,0.1 -0.12,0.22 -0.12,0.35 l 0.08,0.22 0.21,0.08 0.2,-0.08 0.08,-0.2 -0.07,-0.18 -0.18,-0.1 c 0.16,-0.17 0.41,-0.25 0.73,-0.25 z"
   id="path66" />
					<path
   d="m 60.06,161.2 c 0.44,-0.35 0.67,-0.75 0.67,-1.22 0,-0.43 -0.21,-0.79 -0.62,-1.07 -0.41,-0.28 -0.94,-0.42 -1.58,-0.42 h -2.84 c -0.11,0 -0.19,0.01 -0.23,0.03 -0.04,0.02 -0.06,0.08 -0.06,0.17 l 0.06,0.09 c 0.04,0.01 0.11,0.01 0.22,0.01 0.14,0 0.27,0.01 0.38,0.02 l 0.15,0.02 0.08,0.04 0.03,0.09 c 0,0.02 -0.01,0.08 -0.04,0.19 l -1.33,5.35 c -0.05,0.21 -0.12,0.34 -0.21,0.39 -0.09,0.05 -0.32,0.08 -0.69,0.08 -0.11,0 -0.18,0.01 -0.21,0.03 -0.04,0.02 -0.05,0.08 -0.05,0.17 0,0.07 0.05,0.11 0.14,0.11 0.09,0 0.3,0 0.63,-0.01 0.33,-0.01 0.53,-0.01 0.63,-0.01 0.09,0 0.3,0 0.63,0.01 0.33,0.01 0.54,0.01 0.63,0.01 h 0.09 l 0.07,-0.05 0.04,-0.14 -0.08,-0.09 c -0.04,-0.01 -0.11,-0.01 -0.22,-0.01 -0.23,0 -0.4,-0.01 -0.5,-0.03 -0.1,-0.02 -0.15,-0.07 -0.15,-0.15 l 0.01,-0.1 0.01,-0.07 0.66,-2.64 h 1.19 c 0.41,0 0.69,0.09 0.85,0.28 0.16,0.19 0.24,0.4 0.24,0.63 0,0.1 -0.05,0.33 -0.14,0.69 -0.11,0.43 -0.16,0.71 -0.16,0.85 0,0.2 0.04,0.37 0.13,0.52 0.09,0.15 0.18,0.26 0.29,0.32 0.11,0.06 0.24,0.12 0.39,0.16 0.15,0.04 0.26,0.06 0.32,0.06 h 0.19 c 0.36,0 0.65,-0.15 0.87,-0.45 0.22,-0.3 0.33,-0.53 0.33,-0.69 l -0.12,-0.12 c -0.06,0 -0.1,0.05 -0.13,0.14 -0.11,0.33 -0.25,0.56 -0.42,0.7 -0.17,0.14 -0.33,0.21 -0.48,0.21 -0.15,0 -0.26,-0.05 -0.31,-0.14 -0.06,-0.1 -0.08,-0.25 -0.08,-0.46 0,-0.23 0.03,-0.6 0.1,-1.14 0.03,-0.19 0.04,-0.34 0.04,-0.47 0,-0.55 -0.31,-0.94 -0.94,-1.18 0.56,-0.13 1.07,-0.37 1.52,-0.71 z m -2.86,-2.3 0.18,-0.09 c 0.06,-0.01 0.26,-0.01 0.61,-0.01 0.17,0 0.3,0 0.39,0 0.09,0 0.22,0.01 0.39,0.03 0.17,0.02 0.3,0.05 0.4,0.09 0.1,0.04 0.2,0.1 0.31,0.17 0.11,0.07 0.19,0.16 0.24,0.28 0.05,0.12 0.08,0.25 0.08,0.41 0,0.21 -0.05,0.45 -0.14,0.73 -0.09,0.28 -0.23,0.51 -0.41,0.69 -0.39,0.39 -0.95,0.58 -1.68,0.58 h -1.12 l 0.65,-2.6 c 0.03,-0.14 0.06,-0.23 0.1,-0.28 z"
   id="path68" />
					<path
   d="m 64.21,165.52 c -0.05,0.37 -0.11,0.58 -0.18,0.63 -0.04,0.03 -0.27,0.04 -0.69,0.04 h -1.28 c 0.52,-0.46 0.98,-0.85 1.39,-1.17 0.32,-0.26 0.57,-0.5 0.74,-0.72 0.17,-0.23 0.26,-0.49 0.26,-0.78 0,-0.41 -0.16,-0.74 -0.47,-0.99 -0.31,-0.25 -0.7,-0.37 -1.16,-0.37 -0.42,0 -0.76,0.12 -1.04,0.37 -0.27,0.25 -0.41,0.54 -0.41,0.88 0,0.11 0.03,0.19 0.08,0.25 l 0.15,0.12 0.13,0.02 c 0.09,0 0.18,-0.03 0.25,-0.1 0.08,-0.07 0.12,-0.16 0.12,-0.27 0,-0.09 -0.03,-0.18 -0.09,-0.25 -0.06,-0.08 -0.17,-0.12 -0.32,-0.12 0.1,-0.22 0.24,-0.39 0.44,-0.49 0.19,-0.1 0.39,-0.16 0.58,-0.16 0.33,0 0.59,0.11 0.78,0.33 0.19,0.22 0.28,0.48 0.28,0.78 0,0.19 -0.04,0.38 -0.13,0.57 -0.09,0.2 -0.17,0.34 -0.24,0.43 -0.07,0.09 -0.17,0.2 -0.28,0.33 l -1.68,1.66 -0.06,0.08 c -0.01,0.02 -0.01,0.09 -0.01,0.19 h 2.87 l 0.21,-1.27 h -0.24 z"
   id="path70" />
					<path
   d="m 130.92,161.2 c 0.44,-0.35 0.67,-0.75 0.67,-1.22 0,-0.43 -0.21,-0.79 -0.62,-1.07 -0.41,-0.28 -0.94,-0.42 -1.58,-0.42 h -2.84 c -0.11,0 -0.19,0.01 -0.23,0.03 -0.04,0.02 -0.06,0.08 -0.06,0.17 l 0.06,0.09 c 0.04,0.01 0.11,0.01 0.22,0.01 0.14,0 0.27,0.01 0.38,0.02 l 0.15,0.02 0.08,0.04 0.03,0.09 c 0,0.02 -0.01,0.08 -0.04,0.19 l -1.33,5.35 c -0.05,0.21 -0.12,0.34 -0.21,0.39 -0.09,0.05 -0.32,0.08 -0.69,0.08 -0.11,0 -0.18,0.01 -0.21,0.03 -0.04,0.02 -0.05,0.08 -0.05,0.17 0,0.07 0.05,0.11 0.14,0.11 0.09,0 0.3,0 0.63,-0.01 0.33,-0.01 0.53,-0.01 0.63,-0.01 0.09,0 0.3,0 0.63,0.01 0.33,0.01 0.54,0.01 0.63,0.01 h 0.09 l 0.07,-0.05 0.04,-0.14 -0.06,-0.09 c -0.04,-0.01 -0.11,-0.01 -0.22,-0.01 -0.23,0 -0.4,-0.01 -0.5,-0.03 -0.1,-0.02 -0.15,-0.07 -0.15,-0.15 l 0.01,-0.1 0.01,-0.07 0.66,-2.64 h 1.19 c 0.41,0 0.69,0.09 0.85,0.28 0.16,0.19 0.24,0.4 0.24,0.63 0,0.1 -0.05,0.33 -0.14,0.69 -0.11,0.43 -0.16,0.71 -0.16,0.85 0,0.2 0.04,0.37 0.13,0.52 0.09,0.15 0.18,0.26 0.29,0.32 0.11,0.06 0.24,0.12 0.39,0.16 0.15,0.04 0.26,0.06 0.32,0.06 h 0.19 c 0.36,0 0.65,-0.15 0.87,-0.45 0.22,-0.3 0.33,-0.53 0.33,-0.69 l -0.12,-0.12 c -0.06,0 -0.1,0.05 -0.13,0.14 -0.11,0.33 -0.25,0.56 -0.42,0.7 -0.17,0.14 -0.33,0.21 -0.48,0.21 -0.15,0 -0.26,-0.05 -0.31,-0.14 -0.06,-0.1 -0.08,-0.25 -0.08,-0.46 0,-0.23 0.03,-0.6 0.1,-1.14 0.03,-0.19 0.04,-0.34 0.04,-0.47 0,-0.55 -0.31,-0.94 -0.94,-1.18 0.55,-0.13 1.06,-0.37 1.5,-0.71 z m -2.86,-2.3 0.18,-0.09 c 0.06,-0.01 0.26,-0.01 0.61,-0.01 0.17,0 0.3,0 0.39,0 0.09,0 0.22,0.01 0.39,0.03 0.17,0.02 0.3,0.05 0.4,0.09 0.1,0.04 0.2,0.1 0.31,0.17 0.11,0.07 0.19,0.16 0.24,0.28 0.05,0.12 0.08,0.25 0.08,0.41 0,0.21 -0.05,0.45 -0.14,0.73 -0.09,0.28 -0.23,0.51 -0.41,0.69 -0.39,0.39 -0.95,0.58 -1.68,0.58 h -1.12 l 0.65,-2.6 c 0.04,-0.14 0.07,-0.23 0.1,-0.28 z"
   id="path72" />
					<path
   d="m 134.38,164.75 c 0.17,0.19 0.25,0.47 0.25,0.83 0,0.4 -0.09,0.68 -0.27,0.86 -0.18,0.18 -0.39,0.27 -0.63,0.27 -0.2,0 -0.41,-0.04 -0.65,-0.11 -0.23,-0.07 -0.41,-0.2 -0.54,-0.38 0.14,0 0.25,-0.05 0.31,-0.13 0.06,-0.08 0.09,-0.17 0.09,-0.26 0,-0.11 -0.04,-0.2 -0.11,-0.28 -0.07,-0.07 -0.17,-0.11 -0.27,-0.11 -0.11,0 -0.2,0.03 -0.28,0.1 -0.08,0.07 -0.12,0.17 -0.12,0.3 0,0.32 0.15,0.58 0.46,0.78 0.3,0.2 0.68,0.3 1.11,0.3 0.47,0 0.86,-0.13 1.17,-0.4 0.31,-0.27 0.47,-0.58 0.47,-0.94 0,-0.28 -0.11,-0.54 -0.33,-0.78 -0.22,-0.23 -0.51,-0.39 -0.89,-0.47 0.34,-0.12 0.59,-0.29 0.75,-0.52 0.16,-0.23 0.24,-0.46 0.24,-0.69 0,-0.27 -0.14,-0.5 -0.41,-0.69 -0.27,-0.18 -0.61,-0.28 -1,-0.28 -0.39,0 -0.72,0.09 -0.98,0.26 -0.26,0.17 -0.39,0.4 -0.39,0.67 0,0.12 0.03,0.21 0.1,0.27 0.07,0.07 0.15,0.1 0.26,0.1 0.11,0 0.19,-0.03 0.26,-0.1 0.07,-0.07 0.1,-0.15 0.1,-0.25 0,-0.1 -0.03,-0.19 -0.1,-0.25 -0.07,-0.07 -0.15,-0.1 -0.26,-0.11 0.11,-0.13 0.26,-0.23 0.45,-0.29 0.19,-0.06 0.37,-0.09 0.54,-0.09 0.2,0 0.37,0.06 0.52,0.17 0.15,0.12 0.23,0.31 0.23,0.59 0,0.33 -0.09,0.61 -0.28,0.83 -0.11,0.12 -0.21,0.2 -0.31,0.23 -0.1,0.03 -0.26,0.06 -0.46,0.07 -0.13,0.01 -0.2,0.02 -0.22,0.02 l -0.07,0.09 0.04,0.08 0.14,0.01 h 0.38 c 0.3,0.01 0.53,0.1 0.7,0.3 z"
   id="path74" />
					<line
   class="st6"
   x1="59.380001"
   y1="12.52"
   x2="59.380001"
   y2="23.07"
   id="line76" />
					<path
   d="m 57.63,13.86 c 0,-0.74 -0.7,-0.74 -2.09,-0.74 v -0.74 c 2.85,0.14 4.82,0.14 7.67,0 v 0.74 c -1.4,0 -2.09,0 -2.09,0.74 z"
   id="path78" />
					<polygon
   points="61.12,26.55 59.38,24.81 57.63,26.55 57.63,24.81 57.63,22.2 61.12,22.2 61.12,24.81 "
   id="polygon80" />
					<line
   class="st6"
   x1="49.110001"
   y1="44.220001"
   x2="35.459999"
   y2="56.009998"
   id="line82" />
					<path
   d="m 46.96,43.77 c 0.56,-0.48 0.1,-1.01 -0.81,-2.07 l 0.56,-0.48 c 1.76,2.25 3.05,3.75 5.03,5.82 l -0.56,0.48 c -0.91,-1.06 -1.37,-1.59 -1.93,-1.1 z"
   id="path84" />
					<polygon
   points="33.96,59.62 34.14,57.16 31.67,56.98 32.99,55.83 34.98,54.12 37.26,56.76 35.28,58.48 "
   id="polygon86" />
					<line
   class="st6"
   x1="71.790001"
   y1="46.459999"
   x2="82.400002"
   y2="55.970001"
   id="line88" />
					<polygon
   points="69.18,44.13 71.65,43.99 73.6,45.74 71.27,48.34 69.32,46.59 "
   id="polygon90" />
					<polygon
   points="86.17,57 83.71,57.13 83.84,59.6 82.54,58.43 80.59,56.69 82.92,54.08 84.87,55.83 "
   id="polygon92" />
					<line
   class="st6"
   x1="85.300003"
   y1="75.970001"
   x2="72.769997"
   y2="87.660004"
   id="line94" />
					<path
   d="m 83.13,75.6 c 0.54,-0.5 0.06,-1.01 -0.89,-2.04 l 0.54,-0.5 c 1.85,2.18 3.19,3.62 5.24,5.62 l -0.54,0.5 c -0.95,-1.02 -1.43,-1.53 -1.97,-1.03 z"
   id="path96" />
					<polygon
   points="71.4,91.32 71.49,88.85 69.02,88.77 70.3,87.58 72.21,85.79 74.6,88.34 72.68,90.13 "
   id="polygon98" />
					<line
   class="st6"
   x1="107.52"
   y1="78.160004"
   x2="118.52"
   y2="87.75"
   id="line100" />
					<polygon
   points="104.89,75.87 107.35,75.7 109.32,77.42 107.03,80.05 105.06,78.33 "
   id="polygon102" />
					<polygon
   points="122.29,88.73 119.83,88.9 120,91.36 118.69,90.21 116.71,88.49 119.01,85.86 120.98,87.58 "
   id="polygon104" />
					<line
   class="st6"
   x1="130.25"
   y1="109.4"
   x2="130.25"
   y2="151.48"
   id="line106" />
					<polygon
   points="130.25,105.91 131.99,107.66 131.99,110.27 128.5,110.27 128.5,107.66 "
   id="polygon108" />
					<polygon
   points="131.99,154.96 130.25,153.22 128.5,154.96 128.5,153.22 128.5,150.61 131.99,150.61 131.99,153.22 "
   id="polygon110" />
					<line
   class="st6"
   x1="59.380001"
   y1="144.28"
   x2="59.380001"
   y2="151.48"
   id="line112" />
					<polygon
   points="59.38,140.79 61.12,142.53 61.12,145.15 57.63,145.15 57.63,142.53 "
   id="polygon114" />
					<polygon
   points="61.12,154.96 59.38,153.22 57.63,154.96 57.63,153.22 57.63,150.61 61.12,150.61 61.12,153.22 "
   id="polygon116" />
					<line
   class="st6"
   x1="59.380001"
   y1="110.42"
   x2="59.380001"
   y2="120.97"
   id="line118" />
					<path
   d="m 57.63,111.76 c 0,-0.74 -0.7,-0.74 -2.09,-0.74 v -0.74 c 2.85,0.14 4.82,0.14 7.67,0 v 0.74 c -1.4,0 -2.09,0 -2.09,0.74 z"
   id="path120" />
					<polygon
   points="61.12,124.46 59.38,122.71 57.63,124.46 57.63,122.71 57.63,120.1 61.12,120.1 61.12,122.71 "
   id="polygon122" />
				</g>
			</g>
		</g>
	</g>
</g>

<text
   class="st10 st7 st16"
   id="text212"
   x="13.4601"
   y="32.57365">HT1</text>
<text
   class="st11 st7 st16"
   id="text214"
   x="8.9862003"
   y="103.04955">HT2</text>
<text
   class="st13 st7 st16"
   id="text216"
   x="49.672501"
   y="68.37545">HT3</text>
<g
   id="g226"
   transform="translate(-4.9932098e-8,-2.01185)">
	<g
   id="g224">
		<path
   class="st17"
   d="M 45.05,37.38 C 42.54,33.67 38.46,31.46 32.8,30.89"
   id="path218" />
		<g
   id="g222">
			<polygon
   points="42.68,37.11 46.46,40.01 45.89,35.28 44.67,36.88 "
   id="polygon220" />
		</g>
	</g>
</g>
<g
   id="g236"
   transform="translate(-4.9932098e-8,-2.01185)">
	<g
   id="g234">
		<path
   class="st17"
   d="M 80.28,70.4 C 75.7,66.55 73.05,66.64 69.32,66.39"
   id="path228" />
		<g
   id="g232">
			<polygon
   points="77.98,70.88 82.49,72.42 80.44,68.12 79.8,70.02 "
   id="polygon230" />
		</g>
	</g>
</g>
<g
   id="g246"
   transform="translate(-4.9932098e-8,-2.01185)">
	<g
   id="g244">
		<path
   class="st17"
   d="m 39.12,97.83 c -6.76,-0.58 -4.42,4.04 -9.78,4.04"
   id="path238" />
		<g
   id="g242">
			<polygon
   points="37.46,99.5 42.07,98.3 38,95.83 38.51,97.78 "
   id="polygon240" />
		</g>
	</g>
</g>



<g
   id="g472"
   transform="translate(-2.4899999,353.03402)"
   inkscape:export-filename="generated/g472.png"
   inkscape:export-xdpi="300"
   inkscape:export-ydpi="300"><text
     id="text210"
     x="10.226599"
     y="-164.03966"><tspan
       x="10.226599"
       y="-164.03966"
       class="st7 st8"
       id="tspan134">for each </tspan><tspan
       x="65.096596"
       y="-164.03966"
       class="st9 st8"
       id="tspan136">tuple t in </tspan><tspan
       x="132.1566"
       y="-164.03966"
       class="st10 st7 st8"
       id="tspan138">R1</tspan><tspan
       x="10.226599"
       y="-151.88966"
       class="st9 st8"
       id="tspan140">   </tspan><tspan
       x="28.5166"
       y="-151.88966"
       class="st7 st8"
       id="tspan142">materialize </tspan><tspan
       x="101.6766"
       y="-151.88966"
       class="st9 st8"
       id="tspan144">in </tspan><tspan
       x="119.9666"
       y="-151.88966"
       class="st10 st7 st8"
       id="tspan146">HT1</tspan><tspan
       x="10.226599"
       y="-127.57966"
       class="st7 st8"
       id="tspan148">for each </tspan><tspan
       x="65.096596"
       y="-127.57966"
       class="st9 st8"
       id="tspan150">tuple t in </tspan><tspan
       x="132.1566"
       y="-127.57966"
       class="st11 st7 st8"
       id="tspan152">R2</tspan><tspan
       x="10.226599"
       y="-115.42966"
       class="st9 st8"
       id="tspan154">   </tspan><tspan
       x="28.5166"
       y="-115.42966"
       class="st7 st8"
       id="tspan156">if </tspan><tspan
       x="46.806602"
       y="-115.42966"
       class="st9 st8"
       id="tspan158">t.y &lt; 5</tspan><tspan
       x="10.226599"
       y="-103.27966"
       class="st9 st8"
       id="tspan160">      </tspan><tspan
       x="46.806602"
       y="-103.27966"
       class="st7 st8"
       id="tspan162">aggregate </tspan><tspan
       x="107.7766"
       y="-103.27966"
       class="st9 st8"
       id="tspan164">in </tspan><tspan
       x="126.0566"
       y="-103.27966"
       class="st11 st7 st8"
       id="tspan166">HT2</tspan><tspan
       x="10.226599"
       y="-78.97966"
       class="st7 st8"
       id="tspan168">for each </tspan><tspan
       x="65.096596"
       y="-78.97966"
       class="st9 st8"
       id="tspan170">tuple t in </tspan><tspan
       x="132.1566"
       y="-78.97966"
       class="st12 st7 st8"
       id="tspan172">HT2</tspan><tspan
       x="10.226599"
       y="-66.829659"
       class="st9 st8"
       id="tspan174">      </tspan><tspan
       x="46.806602"
       y="-66.829659"
       class="st7 st8"
       id="tspan176">materialize </tspan><tspan
       x="119.9666"
       y="-66.829659"
       class="st9 st8"
       id="tspan178">in </tspan><tspan
       x="138.25659"
       y="-66.829659"
       class="st13 st7 st8"
       id="tspan180">HT3</tspan><tspan
       x="10.226599"
       y="-42.519665"
       class="st7 st8"
       id="tspan182">for each </tspan><tspan
       x="65.096596"
       y="-42.519665"
       class="st9 st8"
       id="tspan184">tuple t3 in </tspan><tspan
       x="138.25659"
       y="-42.519665"
       class="st14 st7 st8"
       id="tspan186">R3</tspan><tspan
       x="10.226599"
       y="-30.369661"
       class="st9 st8"
       id="tspan188">   </tspan><tspan
       x="28.5166"
       y="-30.369661"
       class="st7 st8"
       id="tspan190">for each </tspan><tspan
       x="83.386604"
       y="-30.369661"
       class="st9 st8"
       id="tspan192">match t2 in </tspan><tspan
       x="156.5466"
       y="-30.369661"
       class="st13 st7 st8"
       id="tspan194">HT3</tspan><tspan
       x="10.226599"
       y="-18.219652"
       class="st9 st8"
       id="tspan196">      </tspan><tspan
       x="46.806602"
       y="-18.219652"
       class="st7 st8"
       id="tspan198">for each </tspan><tspan
       x="101.6766"
       y="-18.219652"
       class="st9 st8"
       id="tspan200">match t1 in </tspan><tspan
       x="174.83659"
       y="-18.219652"
       class="st15 st7 st8"
       id="tspan202">HT1</tspan><tspan
       x="10.226599"
       y="-6.0696588"
       class="st9 st8"
       id="tspan204">         </tspan><tspan
       x="65.096596"
       y="-6.0696588"
       class="st7 st8"
       id="tspan206">output </tspan><tspan
       x="107.7766"
       y="-6.0696588"
       class="st9 st8"
       id="tspan208">t1◦t2◦t3    </tspan></text><line
     class="st18"
     x1="3.4105999"
     y1="-171.76726"
     x2="3.4105999"
     y2="-151.88727"
     id="line248" /><line
     class="st19"
     x1="3.4105999"
     y1="-135.30727"
     x2="3.4105999"
     y2="-103.27726"
     id="line250" /><line
     class="st20"
     x1="3.4105999"
     y1="-86.70726"
     x2="3.4105999"
     y2="-66.687263"
     id="line252" /><line
     class="st21"
     x1="3.4105999"
     y1="-50.247261"
     x2="3.4105999"
     y2="-6.0672588"
     id="line254" /></g>
</svg>
