<?xml version="1.0" encoding="UTF-8" standalone="no"?>
<!-- Created with Inkscape (http://www.inkscape.org/) -->

<svg
   width="97.466019mm"
   height="15.4256mm"
   viewBox="0 0 97.466019 15.425599"
   version="1.1"
   id="svg1"
   sodipodi:docname="cedardb.svg"
   inkscape:version="1.3.2 (091e20ef0f, 2023-11-25, custom)"
   xmlns:inkscape="http://www.inkscape.org/namespaces/inkscape"
   xmlns:sodipodi="http://sodipodi.sourceforge.net/DTD/sodipodi-0.dtd"
   xmlns="http://www.w3.org/2000/svg"
   xmlns:svg="http://www.w3.org/2000/svg">
  <sodipodi:namedview
     id="namedview1"
     pagecolor="#ffffff"
     bordercolor="#000000"
     borderopacity="0.25"
     inkscape:showpageshadow="2"
     inkscape:pageopacity="0.0"
     inkscape:pagecheckerboard="0"
     inkscape:deskcolor="#d1d1d1"
     inkscape:document-units="mm"
     inkscape:zoom="1.1462589"
     inkscape:cx="69.79226"
     inkscape:cy="-186.25809"
     inkscape:window-width="2344"
     inkscape:window-height="1320"
     inkscape:window-x="0"
     inkscape:window-y="0"
     inkscape:window-maximized="1"
     inkscape:current-layer="layer1" />
  <defs
     id="defs1">
    <inkscape:path-effect
       effect="spiro"
       id="path-effect148079-4-3-7-9-8"
       is_visible="true"
       lpeversion="1" />
  </defs>
  <g
     id="layer1"
     transform="translate(-0.72204995,0.21249359)">
    <path
       id="path148077-1-6-5-6-7"
       style="display:inline;fill:none;stroke:#fb773e;stroke-width:3.92676;stroke-linecap:butt;stroke-linejoin:miter;stroke-dasharray:none;stroke-opacity:1"
       d="m 752.18668,-246.49435 c -10.29628,-2.22018 -20.05603,-6.8891 -28.24592,-13.51241 -6.44878,-5.21525 -11.92467,-11.62949 -16.06381,-18.8165 m 33.89512,48.40162 c -8.37492,-5.54158 -17.10548,-10.54562 -26.12012,-14.97109 -4.45544,-2.18727 -9.06107,-4.28712 -12.69862,-7.664 -1.81877,-1.68844 -3.37265,-3.69209 -4.36222,-5.96795 -0.98957,-2.27585 -1.39538,-4.83378 -0.95142,-7.27543 0.35279,-1.94024 1.22193,-3.7499 2.22292,-5.44902 1.00099,-1.69911 2.14192,-3.31407 3.10653,-5.0341 0.35447,-0.63206 0.68889,-1.28375 1.16273,-1.83203 0.23693,-0.27414 0.50836,-0.52083 0.81751,-0.70982 0.30914,-0.18899 0.65707,-0.31925 1.01758,-0.35553 0.36347,-0.0366 0.73626,0.0239 1.06954,0.1735 0.33327,0.1496 0.62621,0.38795 0.84045,0.68385 1.02005,-3.13547 2.34054,-6.17312 3.93751,-9.0578 0.40056,-0.72356 0.82184,-1.44228 1.36332,-2.06741 0.54148,-0.62512 1.21366,-1.15704 1.99655,-1.42362 0.573,-0.19511 1.19561,-0.24254 1.79156,-0.13647 0.59595,0.10607 1.16396,0.36541 1.63445,0.74625 1.0069,-0.61922 2.10404,-1.09145 3.24591,-1.3971 2.06095,-0.55167 4.26686,-0.55167 6.32781,0 1.14186,0.30565 2.23899,0.77788 3.24589,1.3971 0.47047,-0.38087 1.03847,-0.64023 1.63441,-0.74631 0.59595,-0.10607 1.21856,-0.0586 1.79155,0.13652 0.78287,0.26663 1.45499,0.7986 1.99645,1.42374 0.54146,0.62515 0.96275,1.34384 1.36347,2.0673 1.59821,2.8854 2.9219,5.92278 3.94738,9.05778 0.21332,-0.29461 0.50471,-0.53214 0.83628,-0.68169 0.33156,-0.14955 0.70249,-0.21075 1.06452,-0.17564 0.36131,0.035 0.71032,0.16454 1.02048,0.35315 0.31016,0.18861 0.58257,0.43529 0.82031,0.70961 0.47549,0.54865 0.81093,1.20141 1.16623,1.83455 0.96476,1.71916 2.1042,3.33426 3.10322,5.03375 0.99901,1.69948 1.86557,3.50956 2.21647,5.44944 0.44168,2.44171 0.0345,4.99883 -0.95553,7.27408 -0.99008,2.27525 -2.54374,4.27848 -4.36205,5.96691 -3.63662,3.37684 -8.2406,5.4782 -12.6948,7.66639 -9.01336,4.42794 -17.74372,9.43185 -26.12012,14.97109 m 44.1325,-35.87847 c 0.64113,1.69592 1.16221,3.43721 1.55806,5.20653 0.44795,2.00222 0.73605,4.05111 0.67344,6.10187 -0.0908,2.9745 -0.93249,5.92312 -2.42554,8.49736 0.13882,2.57304 -0.41842,5.18032 -1.5969,7.47182 -1.90144,3.69726 -5.28363,6.41102 -8.81771,8.60089 -2.09585,1.29868 -4.28609,2.45778 -6.59441,3.32427 -6.48446,2.43411 -13.85067,2.43439 -20.33502,0 -2.30828,-0.86659 -4.4984,-2.02586 -6.59442,-3.32427 -3.5345,-2.18949 -6.91852,-4.9023 -8.81771,-8.6009 -1.17679,-2.29176 -1.73071,-4.89958 -1.58707,-7.47181 -1.49833,-2.57243 -2.34359,-5.52179 -2.43528,-8.49735 -0.0632,-2.05076 0.22532,-4.09967 0.67346,-6.10187 0.39601,-1.76928 0.91709,-3.51056 1.55807,-5.20654 m 33.78026,-24.4622 c -3.39121,7.36019 -8.93483,13.71303 -15.768,18.06969 -5.41824,3.45454 -11.62849,5.65854 -18.01226,6.39251 m 20.96065,-24.4622 c 3.3912,7.36019 8.93483,13.71303 15.768,18.06969 5.41828,3.45456 11.62857,5.65856 18.01238,6.39251 m -10.22751,-12.52317 c -4.14333,7.187 -9.62241,13.60104 -16.07369,18.81652 -8.18848,6.61991 -17.94394,11.2884 -28.23608,13.51241"
       sodipodi:nodetypes="czccaaaacaaccccaacaasaccaacaaaaaacaaccaccacczc"
       inkscape:original-d="m 752.18668,-246.49435 c 0,0 -20.81999,-7.86048 -28.24592,-13.51241 -7.42593,-5.65193 -16.06381,-18.8165 -16.06381,-18.8165 m 33.89512,48.40162 c 0,0 -18.5092,-8.7332 -26.12012,-14.97109 -7.26534,-5.95465 -16.88271,-12.2005 -18.01226,-20.90738 -0.49386,-3.80682 2.94913,-7.28245 5.32945,-10.48312 0.81351,-1.09388 1.5527,-2.66232 2.99782,-2.89738 0.70046,-0.11394 1.90999,0.85735 1.90999,0.85735 0,0 2.07402,-6.28166 3.93751,-9.0578 0.8841,-1.31709 1.73956,-2.99087 3.35987,-3.49103 1.10093,-0.33984 3.0245,0.11798 3.42601,0.60978 1.08141,-0.46543 2.095,-1.09225 3.24591,-1.3971 2.11221,-0.46166 4.38407,-0.50061 6.32781,0 1.15098,0.30461 2.16448,0.93167 3.24589,1.3971 0.40151,-0.4918 2.32504,-0.94962 3.42596,-0.60979 1.62033,0.50015 2.47518,2.17428 3.35992,3.49104 1.86543,2.77634 3.94738,9.05778 3.94738,9.05778 0,0 1.20282,-0.96975 1.9008,-0.85733 1.44761,0.23315 2.19186,1.80222 3.00702,2.89731 2.38114,3.19881 5.81489,6.67767 5.31969,10.48319 -1.13295,8.70655 -10.74701,14.95273 -18.01238,20.90738 -7.61094,6.23788 -26.12012,14.97109 -26.12012,14.97109 m 44.1325,-35.87847 c 0,0 1.19861,3.43959 1.55806,5.20653 0.40916,2.01129 0.84655,4.06399 0.67344,6.10187 -0.24748,2.91323 -2.42554,8.49736 -2.42554,8.49736 0,0 -0.32553,5.20692 -1.5969,7.47182 -1.95297,3.47915 -5.41341,6.18343 -8.81771,8.60089 -1.97706,1.40395 -4.15527,2.75157 -6.59441,3.32427 -6.55757,1.53968 -13.77745,1.53968 -20.33502,0 -2.43915,-0.5727 -4.61736,-1.92032 -6.59442,-3.32427 -3.4043,-2.41746 -6.86695,-5.12075 -8.81771,-8.6009 -1.26965,-2.26506 -1.58707,-7.47181 -1.58707,-7.47181 0,0 -2.18618,-5.58352 -2.43528,-8.49735 -0.17421,-2.03782 0.2643,-4.09058 0.67346,-6.10187 0.35946,-1.76695 1.55807,-5.20654 1.55807,-5.20654 m 33.78026,-24.4622 c 0,0 -8.90847,13.48059 -15.768,18.06969 -5.16045,3.4524 -18.01226,6.39251 -18.01226,6.39251 m 20.96065,-24.4622 c 0,0 8.90846,13.4806 15.768,18.06969 5.16049,3.45241 18.01238,6.39251 18.01238,6.39251 m -10.22751,-12.52317 c 0,0 -8.64762,13.16535 -16.07369,18.81652 -7.42607,5.65117 -28.23608,13.51241 -28.23608,13.51241"
       inkscape:path-effect="#path-effect148079-4-3-7-9-8"
       class="UnoptimicedTransforms"
       transform="matrix(-0.19166824,0,0,0.21655121,145.73521,63.569987)" />
    <path
       d="m 21.612877,11.496621 q 0.898482,0 1.807988,-0.347266 l 0.242535,0.760678 q -0.418924,0.209462 -1.008725,0.292145 -0.589801,0.08819 -1.041798,0.08819 h -0.07717 q -1.962329,0 -2.6293,-1.12448 -0.4079,-0.683508 -0.496094,-1.841061 -0.03858,-0.556728 -0.03858,-1.218187 0,-0.661459 0.03307,-1.2567721 0.03859,-0.6008253 0.148828,-1.0969195 0.110243,-0.5016064 0.319705,-0.8929697 0.209462,-0.3913632 0.56224,-0.661459 0.716581,-0.5622401 2.083596,-0.5622401 0.881946,0 1.416625,0.1157553 0.540191,0.1102431 0.727605,0.1819012 l -0.248047,0.870921 q -1.074871,-0.3748267 -1.841061,-0.3748267 -0.760678,0 -1.17409,0.1874133 -0.4079,0.1819013 -0.63941,0.6063375 -0.402388,0.7276049 -0.402388,2.7726156 v 0.4078998 q 0,1.6812084 0.435461,2.3481794 0.48507,0.744141 1.769402,0.744141 z m 8.698186,0.336242 q -1.141017,0.457509 -2.519056,0.457509 -0.799263,0 -1.355991,-0.165365 -0.887458,-0.253559 -1.179602,-1.04731 -0.270096,-0.744141 -0.270096,-2.204863 V 8.5917139 q 0,-1.7473542 0.727605,-2.4529104 0.655947,-0.6283861 2.188327,-0.6283861 1.493795,0 2.039498,0.7386292 0.264584,0.3582903 0.347266,0.8709211 0.08819,0.5071185 0.08819,0.9701398 0,0.7220928 -0.03307,1.1189682 -0.777214,0.033073 -1.394576,0.033073 0,0 -0.887458,0 -1.389064,0 -2.138717,-0.1212675 0,1.2677969 0.319705,1.7694029 0.391363,0.61185 1.559941,0.61185 1.168577,0 2.237936,-0.45751 z M 29.445654,8.4759586 V 7.9467914 q 0,-0.8654089 -0.336242,-1.2347235 -0.374826,-0.4134118 -1.295357,-0.4134118 -1.102431,0 -1.504819,0.4795577 -0.385851,0.4575092 -0.385851,1.6977448 z m 7.50756,2.9710534 q -1.163065,0.84336 -2.364716,0.84336 -1.32843,0 -1.769403,-0.975652 -0.253559,-0.551216 -0.286632,-1.163065 -0.02756,-0.617362 -0.02756,-1.0803833 0,-0.4685334 0.0055,-0.9425791 0.01103,-0.4740456 0.07166,-0.8764331 0.06063,-0.4023876 0.187414,-0.7220928 0.132292,-0.3252173 0.374827,-0.5512158 0.501606,-0.4685335 1.653647,-0.4685335 1.157553,0 2.089108,0.4023876 V 2.7984355 l 0.915018,-0.088195 v 6.4547375 q 0,1.9016946 0.104731,2.9710536 l -0.821311,0.06615 z M 36.887068,6.6679707 Q 35.89488,6.3372412 34.968837,6.3372412 q -0.672483,0 -0.887458,0.1102431 -0.214974,0.1102432 -0.330729,0.2866323 -0.110243,0.176389 -0.181901,0.4850699 -0.12678,0.5787766 -0.12678,1.9072068 v 0.1212675 q 0,1.2402352 0.270096,1.7142812 0.292144,0.501606 1.085895,0.501606 h 0.08268 q 0.760678,0 1.620575,-0.485069 0.237023,-0.132292 0.4079,-0.264584 v -0.01102 q -0.02756,-0.512631 -0.02756,-1.5819899 z m 8.345409,3.1860275 q 0,1.0969198 0.104731,2.2820338 l -0.815799,0.06615 -0.137804,-0.76619 q -0.700044,0.56224 -1.852086,0.782726 -0.374826,0.07166 -0.666971,0.07166 -0.292144,0 -0.518143,-0.02756 -0.220486,-0.02756 -0.429948,-0.104731 -0.20395,-0.08268 -0.380339,-0.225998 -0.176389,-0.143316 -0.308681,-0.380339 -0.28112,-0.501606 -0.28112,-1.201651 0,-0.7055558 0.09922,-1.0914069 0.104731,-0.3913632 0.341754,-0.6504347 0.468533,-0.5126307 1.576477,-0.5126307 1.107944,0 2.364716,0.418924 V 7.7979631 q 0,-1.1961383 -0.986676,-1.4166247 -0.319705,-0.071658 -0.733117,-0.071658 -0.942579,0 -1.956817,0.3748267 L 40.447924,5.8907563 q 0.28112,-0.1874134 1.433161,-0.3362416 0.363802,-0.044097 0.870921,-0.044097 0.512631,0 1.003213,0.1212675 0.490582,0.1212675 0.815799,0.3968754 0.661459,0.5457037 0.661459,1.7694028 z M 44.306434,9.2035635 q -1.289845,-0.3252173 -2.381252,-0.3252173 -0.672483,0 -0.89297,0.3858511 -0.148828,0.2700957 -0.148828,0.7992627 0,0.529167 0.05512,0.76619 0.06063,0.237023 0.192925,0.391363 0.259072,0.292145 0.854385,0.292145 0.931555,0 1.846573,-0.479558 0.28112,-0.143316 0.507118,-0.319705 -0.03307,-0.595313 -0.03307,-1.5103315 z m 5.776742,-2.78364 q -0.705557,0 -1.438674,0.7055563 V 12.180129 H 47.729484 V 5.6206606 h 0.804775 l 0.08819,0.870921 Q 48.881525,6.089194 49.179182,5.8631955 49.48235,5.637197 49.675276,5.5875876 q 0.275608,-0.07717 0.523655,-0.07717 0.248047,0 0.622874,0.099219 l -0.08268,0.8764331 q -0.281121,-0.066146 -0.655947,-0.066146 z m 2.42535,-2.6237874 q 0,0 0.826824,-0.060634 1.240236,-0.099219 1.978865,-0.099219 0.738629,0 1.179602,0.060634 0.440972,0.055122 0.771702,0.1984377 0.336242,0.137804 0.567752,0.3803389 0.237023,0.242535 0.385851,0.6173618 0.28112,0.7000441 0.28112,2.0835958 v 0.8543846 q 0,1.637111 -0.242535,2.4859839 -0.28112,0.981164 -1.008725,1.411112 -0.749653,0.451997 -2.199351,0.451997 h -2.541105 z m 4.679823,1.2898451 Q 56.989911,4.7717882 56.615084,4.6119356 56.240257,4.452083 55.463043,4.452083 q -0.777214,0 -2.01745,0.093707 V 11.39189 h 1.752867 q 1.025261,0 1.521355,-0.336241 0.48507,-0.325218 0.650435,-1.1189684 0.143316,-0.6504347 0.143316,-2.1056445 V 6.9711394 q 0,-1.3725275 -0.325217,-1.8851582 z m 8.924184,0.8213116 q 0,1.6977448 -1.284333,1.8686217 v 0.016536 q 0.79375,0.060634 1.185114,0.451997 0.451997,0.4630213 0.451997,1.3449666 0,0.8764334 -0.20395,1.3615034 -0.198438,0.48507 -0.556728,0.755165 -0.61185,0.474046 -1.923743,0.474046 H 60.964177 V 3.7740875 q 1.526867,-0.1433161 2.519056,-0.1433161 0.992188,0 1.45521,0.1543404 0.463021,0.1488283 0.722093,0.4354605 0.451997,0.5016065 0.451997,1.6867205 z m -2.971054,1.6040381 q 1.107944,0 1.537892,-0.314193 0.490582,-0.3527782 0.490582,-1.3118937 V 5.7694888 q 0,-0.7386292 -0.325217,-1.0528222 -0.325217,-0.3086809 -1.107944,-0.3086809 -0.655947,0 -1.113456,0.027561 l -0.722093,0.044097 v 3.0316871 z m 0.755166,3.8860721 q 0.810287,0 1.157553,-0.308681 0.435461,-0.391364 0.435461,-1.4000885 0,-1.1685776 -0.854385,-1.3670153 -0.259071,-0.060634 -0.56224,-0.060634 h -2.171791 v 3.1364186 z m 7.402828,-7.6012669 q 0,0 0.826824,-0.060634 1.240236,-0.099219 1.978865,-0.099219 0.738629,0 1.179602,0.060634 0.440972,0.055122 0.771702,0.1984377 0.336242,0.137804 0.567752,0.3803389 0.237023,0.242535 0.385851,0.6173618 0.28112,0.7000441 0.28112,2.0835958 v 0.8543846 q 0,1.637111 -0.242535,2.4859839 -0.28112,0.981164 -1.008725,1.411112 -0.749653,0.451997 -2.199351,0.451997 h -2.541105 z m 4.679823,1.2898451 Q 75.780858,4.7717882 75.406031,4.6119356 75.031204,4.452083 74.25399,4.452083 q -0.777214,0 -2.01745,0.093707 V 11.39189 h 1.752866 q 1.025262,0 1.521356,-0.336241 0.48507,-0.325218 0.650435,-1.1189684 0.143316,-0.6504347 0.143316,-2.1056445 V 6.9711394 q 0,-1.3725275 -0.325217,-1.8851582 z m 3.511244,3.8309501 q 0,-1.25126 0.12678,-1.7473542 0.126779,-0.4960943 0.30868,-0.7827265 0.187414,-0.2921444 0.501607,-0.48507 0.628386,-0.3913632 1.857597,-0.3913632 1.774915,0 2.282034,0.8764332 0.303169,0.5291672 0.347266,1.4937949 0.01654,0.4575092 0.01654,1.008725 0,0.5512158 -0.03858,1.0307736 -0.03307,0.4740459 -0.137804,0.8543849 -0.104731,0.380339 -0.292144,0.666971 -0.187414,0.28112 -0.496094,0.474045 -0.606338,0.374827 -1.769403,0.374827 -1.741842,0 -2.287546,-0.859896 -0.336242,-0.53468 -0.391363,-1.4993076 -0.02756,-0.4630213 -0.02756,-1.0142371 z m 1.499307,2.2985697 q 0.198438,0.148829 0.496094,0.225999 0.303169,0.07166 0.821312,0.07166 0.523655,0 0.876433,-0.148828 0.35829,-0.148829 0.534679,-0.474046 0.181902,-0.33073 0.225999,-0.854385 0.04961,-0.5236546 0.04961,-1.2181866 0,-0.6945319 -0.0441,-1.1575532 -0.03858,-0.4630213 -0.20395,-0.76619 -0.330729,-0.5953131 -1.471746,-0.5953131 -1.207163,0 -1.570965,0.5953131 -0.181901,0.3031687 -0.231511,0.7717021 -0.04961,0.4685335 -0.04961,1.0197493 0,0.5512159 0.01102,0.937067 0.01654,0.3803384 0.07166,0.6890194 0.06063,0.303169 0.170877,0.529168 0.115755,0.225998 0.314193,0.374826 z m 10.765246,0.672484 q -0.76619,0.402387 -2.100132,0.402387 -0.788239,0 -1.157553,-0.121267 -0.942579,-0.319705 -1.234724,-1.085895 -0.20395,-0.53468 -0.237022,-1.1520416 -0.03307,-0.6173617 -0.03307,-1.0417979 0,-0.4244362 0.02205,-0.8268238 0.02205,-0.4078997 0.104731,-0.7827265 0.08819,-0.3748267 0.264584,-0.6945319 0.176389,-0.3252174 0.479558,-0.5677523 0.655946,-0.5071186 1.885158,-0.5071186 0.903994,0 1.664672,0.2645836 0.203949,0.066146 0.30868,0.1267796 l -0.275607,0.8157995 q -1.058335,-0.4078997 -1.73633,-0.4078997 -0.672484,0 -0.992189,0.1543404 -0.314193,0.1543404 -0.490582,0.4685335 -0.297656,0.5401915 -0.297656,1.984377 0,0.5787766 0.03859,1.0583344 0.03858,0.4740453 0.192925,0.8157993 0.325218,0.705556 1.339455,0.705556 1.019749,0 1.978865,-0.352778 z m 2.045014,-1.008725 q 1.135505,0.633898 2.282034,0.633898 0.953603,0 1.118968,-0.677996 0.05512,-0.23151 0.05512,-0.56224 0,-0.3362414 -0.07717,-0.5181426 Q 97.10189,9.567366 96.919989,9.4791714 96.738088,9.3854647 96.434919,9.3413675 96.137262,9.2972702 95.674241,9.2201 95.21122,9.1374176 94.825369,9.0381988 94.439518,8.9389799 94.169422,8.7515665 93.596157,8.349179 93.618206,7.3955756 v -0.137804 q 0,-1.0032128 0.661459,-1.427649 0.63941,-0.418924 2.111157,-0.2866322 1.003213,0.093707 1.598526,0.3472659 l -0.259072,0.8323359 q -0.661459,-0.28112 -1.587501,-0.4078997 -0.286633,-0.038585 -0.540192,-0.038585 -0.248047,0 -0.451997,0.038585 -0.20395,0.038585 -0.341754,0.1433161 -0.264583,0.2149742 -0.275608,0.799263 -0.01654,0.6890198 0.385851,0.8764332 0.385852,0.1819012 0.915019,0.2535593 0.529167,0.066146 0.865409,0.1212675 0.336241,0.049609 0.611849,0.1378039 0.275608,0.088195 0.474046,0.2811201 0.413412,0.3913632 0.402387,1.3615034 -0.02756,1.692232 -1.411112,1.929255 -0.418924,0.07166 -0.837848,0.07166 -0.418924,0 -0.771702,-0.05512 -0.347266,-0.04961 -0.666972,-0.143316 -0.606337,-0.170877 -1.096919,-0.451997 z"
       id="text3062-5-2-9"
       style="font-weight:bold;font-size:11.2889px;font-family:Armata;-inkscape-font-specification:'Armata Bold';clip-rule:evenodd;fill-rule:evenodd;stroke-width:0.264583;stroke-linejoin:round;stroke-miterlimit:2"
       aria-label="CedarDB Docs" />
  </g>
</svg>
